<?xml version="1.0" encoding="UTF-8"?>
<svg version="1.1" xmlns="http://www.w3.org/2000/svg" width="1407" height="768">
<path d="M0 0 C464.31 0 928.62 0 1407 0 C1407 253.44 1407 506.88 1407 768 C942.69 768 478.38 768 0 768 C0 514.56 0 261.12 0 0 Z " fill="#FEFEFE" transform="translate(0,0)"/>
<path d="M0 0 C0.66 0 1.32 0 2 0 C3.71927949 2.13262543 5.31020721 4.25781141 6.875 6.5 C7.3282666 7.14493408 7.7815332 7.78986816 8.24853516 8.4543457 C17.23614107 21.41705065 22.4576656 35.94584447 22.08984375 51.79296875 C22.06941152 53.65950249 22.04923744 55.52603907 22.02929688 57.39257812 C21.98604555 60.28406346 21.93772771 63.17534907 21.88354492 66.06665039 C21.68523561 77.49923123 21.84142202 87.91373319 25 99 C25.50789062 97.94941406 26.01578125 96.89882812 26.5390625 95.81640625 C31.92523945 84.7809912 37.48518279 75.48540302 45.8359375 66.39453125 C54.36951711 56.95214082 60.73339556 45.97829321 65 34 C65.66 34 66.32 34 67 34 C70.25644276 43.76932827 69.12578329 57.95653757 65.33203125 67.3671875 C61.39821198 75.14253703 56.35748177 82.1510581 51 89 C49.59092717 86.18185434 50.49127309 84.82722796 51.4375 81.875 C51.72496094 80.96492188 52.01242187 80.05484375 52.30859375 79.1171875 C52.53675781 78.41851562 52.76492188 77.71984375 53 77 C43.22163749 89.44518865 37.09090608 101.10394001 36 117 C36.66 117 37.32 117 38 117 C38.185625 116.34 38.37125 115.68 38.5625 115 C40.64769843 110.64828154 43.67549136 107.46160178 47 104 C47.49113281 103.48308594 47.98226562 102.96617187 48.48828125 102.43359375 C57.92288507 93.48656635 70.6405667 89.11438722 82.87597656 85.61523438 C102.95727119 79.79858352 118.8859885 71.7744651 133.5390625 56.43359375 C135 55 135 55 136 55 C134.04862453 79.13543342 124.76906927 101.17349723 106.3046875 117.36328125 C103.56872635 119.61986459 100.79519883 121.81734127 98 124 C95.9946968 125.5975324 93.99457752 127.20159615 92 128.8125 C91.113125 129.52019531 90.22625 130.22789062 89.3125 130.95703125 C87.18361486 132.8377862 85.59671285 134.66270652 84 137 C85.6396875 136.566875 85.6396875 136.566875 87.3125 136.125 C88.87406165 135.74611156 90.43663859 135.37139244 92 135 C92.75152344 134.80921875 93.50304687 134.6184375 94.27734375 134.421875 C100.59022572 133.02566098 106.74971765 132.81838893 113.1875 132.8125 C114.03086914 132.81169434 114.87423828 132.81088867 115.74316406 132.81005859 C119.54814057 132.84367146 123.26332527 132.9802638 127.03515625 133.49609375 C142.92266825 135.51529478 156.54795115 133.15373902 171.50390625 127.671875 C174 127 174 127 177 128 C174.69678747 131.02427907 172.35825619 134.01845717 170 137 C169.45988281 137.69222656 168.91976563 138.38445312 168.36328125 139.09765625 C161.53893283 147.40915081 152.97106343 153.12114675 143 157 C142.34 157.33 141.68 157.66 141 158 C129.33433789 158.71450463 118.40174082 157.39736227 107 155 C107 154.34 107 153.68 107 153 C116.24 151.02 125.48 149.04 135 147 C129.96717399 146.8841549 124.93911149 146.7849588 119.90600586 146.7253418 C118.20011586 146.70045119 116.4943296 146.66652533 114.78881836 146.62280273 C99.69823672 146.24609218 89.06411703 149.06700904 76 157 C76 157.99 76 158.98 76 160 C76.99257813 159.96519531 77.98515625 159.93039062 79.0078125 159.89453125 C95.66004796 159.49009034 109.46704428 163.33787209 124.04223633 171.31542969 C133.61900463 176.49078381 140.12058545 179.77601581 151 177 C152.39184676 176.78489641 153.78804041 176.59567647 155.1875 176.4375 C155.88230469 176.35628906 156.57710937 176.27507812 157.29296875 176.19140625 C161.19548009 175.9154711 165.08872862 175.88814512 169 175.875 C169.74789795 175.87040771 170.4957959 175.86581543 171.26635742 175.86108398 C176.64024289 175.87576834 181.59497702 176.39944189 187 177 C187 249.27 187 321.54 187 396 C175.45 396 163.9 396 152 396 C138.0006167 396.34566379 124.68035151 398.01303854 110.91552734 400.47802734 C109.11796112 400.7998492 107.31903064 401.11427638 105.51806641 401.41650391 C73.80982484 406.76120001 38.41195772 419.77075293 13.6640625 440.72265625 C10.04917744 443.49746238 5.7246555 443.7665487 1.3125 443.71484375 C-3.67419118 442.63870638 -7.17378099 439.79745253 -11.19580078 436.83154297 C-27.49145474 424.91036013 -46.0028772 416.59856576 -65 410 C-66.23532471 409.5656665 -66.23532471 409.5656665 -67.49560547 409.12255859 C-81.2257877 404.38983804 -95.30507801 401.79586383 -109.62646484 399.53613281 C-111.7202513 399.20338169 -113.81221486 398.85863825 -115.90087891 398.49511719 C-137.36405764 394.76272643 -157.87810656 396 -180 396 C-180 324.06 -180 252.12 -180 178 C-174.22616786 176.07538929 -170.40798496 175.65011465 -164.5 175.6875 C-163.12980713 175.69378418 -163.12980713 175.69378418 -161.73193359 175.70019531 C-146.15640284 175.94974362 -130.8695401 178.38695504 -116 183 C-115.34741211 183.18868652 -114.69482422 183.37737305 -114.02246094 183.57177734 C-99.60452889 187.7414351 -86.38825157 194.29564302 -73 201 C-72.34 201.33 -71.68 201.66 -71 202 C-71.495 200.4840625 -71.495 200.4840625 -72 198.9375 C-73.99115389 191.05761439 -73.88627444 181.89217225 -72 174 C-75.14754745 174.2528023 -78.29243394 174.5306204 -81.4375 174.8125 C-82.31599609 174.88275391 -83.19449219 174.95300781 -84.09960938 175.02539062 C-89.40355794 175.51468477 -94.04308885 176.46811291 -99.01806641 178.39160156 C-105.8299133 180.48264892 -112.87642657 176.69788584 -119 174 C-119 173.34 -119 172.68 -119 172 C-92.15372525 160.56807847 -92.15372525 160.56807847 -76.9375 160.875 C-76.07189453 160.88402344 -75.20628906 160.89304687 -74.31445312 160.90234375 C-72.20951221 160.92560277 -70.10471658 160.96145992 -68 161 C-68.30683249 159.05339416 -68.30683249 159.05339416 -69 157 C-86.31849218 145.1244625 -106.89262094 144.48657762 -127 147 C-119.08 148.98 -111.16 150.96 -103 153 C-107.99270203 157.99270203 -117.86751411 158.21899447 -124.625 158.4375 C-140.6494398 157.97470029 -151.45358997 148.04295927 -162.1171875 137.18359375 C-169 129.86245714 -169 129.86245714 -169 126 C-167.865625 126.391875 -166.73125 126.78375 -165.5625 127.1875 C-164.73878906 127.455625 -163.91507813 127.72375 -163.06640625 128 C-161.43346073 128.53252746 -159.80159311 129.06895557 -158.17919922 129.6328125 C-145.96094222 133.86045698 -135.05271786 135.19964661 -122.16796875 133.4921875 C-106.36929869 131.40263012 -91.03286397 132.85482334 -76 138 C-78.12311963 136.16444989 -80.24811556 134.331181 -82.375 132.5 C-83.01405273 131.94900635 -83.65310547 131.3980127 -84.31152344 130.83032227 C-87.88678237 127.76229086 -91.50736245 124.80127538 -95.25 121.9375 C-112.64795316 108.04765871 -123.54813217 86.89133275 -127 65 C-127.18551488 62.27086997 -127.16094154 59.73600613 -127 57 C-122.93549433 59.95109055 -119.03438109 62.92947885 -115.375 66.375 C-104.27212122 76.17929647 -89.89797283 81.42808173 -76.03125 85.97265625 C-74.44739502 86.49182617 -74.44739502 86.49182617 -72.83154297 87.02148438 C-70.74543499 87.69874678 -68.65603162 88.36596897 -66.56298828 89.02148438 C-60.23811973 91.05295081 -54.69165175 93.58580055 -49 97 C-48.34 97.33 -47.68 97.66 -47 98 C-47.43570313 96.99324219 -47.87140625 95.98648438 -48.3203125 94.94921875 C-50.98173162 87.85262111 -51.94155028 80.23107771 -53.22412109 72.78588867 C-55.55978705 59.34685115 -59.45506942 47.48592524 -67 36 C-54.49766784 39.7635508 -44.69372905 47.99972016 -38.28515625 59.26171875 C-34.63964411 67.02920814 -33.5446672 75.51070441 -33 84 C-35.61527381 81.63379989 -37.26440562 79.057952 -39 76 C-37.17670562 84.51625698 -35.01362598 92.63477519 -31.5 100.625 C-31.21568115 101.2746875 -30.9313623 101.924375 -30.63842773 102.59375 C-28.78105503 106.67351597 -26.70669724 110.42329294 -24 114 C-23.01 114.33 -22.02 114.66 -21 115 C-21.2165625 114.43796875 -21.433125 113.8759375 -21.65625 113.296875 C-28.67683864 92.10509818 -21.89938099 73.49520949 -12.51147461 54.48217773 C-9.36669895 48.05657068 -6.54401924 41.67485888 -4.3125 34.875 C-4.08127441 34.17213867 -3.85004883 33.46927734 -3.61181641 32.74511719 C-1.23083471 25.09688937 -0.78618349 17.50219464 -0.4375 9.5625 C-0.37272461 8.17901367 -0.37272461 8.17901367 -0.30664062 6.76757812 C-0.20145069 4.51183837 -0.09930893 2.25600501 0 0 Z " fill="#1E3451" transform="translate(700,105)"/>
<path d="M0 0 C14.47223666 10.79674798 25.25214632 24.69126068 29.07421875 42.73046875 C31.35246565 61.02548176 27.66879857 76.23989097 17.65625 91.60546875 C16.09195837 93.9273555 16.09195837 93.9273555 17.2734375 97.1484375 C17.86125 98.47875 17.86125 98.47875 18.4609375 99.8359375 C21.73592099 98.41624022 24.40916923 96.42392466 27.22949219 94.25732422 C45.54094591 80.23716594 67.30897137 69.25975276 89.4609375 62.8359375 C90.42644531 62.55234375 91.39195312 62.26875 92.38671875 61.9765625 C98.42339775 60.34006308 104.55008803 59.20171201 110.7109375 58.1484375 C111.43635742 58.01679199 112.16177734 57.88514648 112.90917969 57.74951172 C120.94472961 56.45665473 128.0072101 56.8359375 136.4609375 56.8359375 C136.4609375 120.5259375 136.4609375 184.2159375 136.4609375 249.8359375 C126.5609375 250.1659375 116.6609375 250.4959375 106.4609375 250.8359375 C100.68129287 251.30339113 95.01159449 251.7994098 89.2734375 252.5234375 C88.57690063 252.60930115 87.88036377 252.69516479 87.16271973 252.78363037 C57.8149515 256.43706077 28.09752789 263.7599499 1.61328125 277.2421875 C-1.0701273 278.59885502 -3.72916048 279.77359269 -6.5390625 280.8359375 C-2.43279005 272.86493804 4.5996237 267.68345129 11.9609375 262.8984375 C12.75209961 262.38120117 13.54326172 261.86396484 14.35839844 261.33105469 C46.97295184 240.27376769 82.05307151 233.8359375 120.4609375 233.8359375 C120.4609375 179.3859375 120.4609375 124.9359375 120.4609375 68.8359375 C116.1709375 69.4959375 111.8809375 70.1559375 107.4609375 70.8359375 C107.4609375 114.3959375 107.4609375 157.9559375 107.4609375 202.8359375 C101.83962231 197.21462231 101.83962231 197.21462231 99.98828125 194.078125 C99.36070923 193.03084229 99.36070923 193.03084229 98.72045898 191.96240234 C98.06605835 190.84792725 98.06605835 190.84792725 97.3984375 189.7109375 C96.4310279 188.09555068 95.46223083 186.48099413 94.4921875 184.8671875 C93.99460937 184.03703125 93.49703125 183.206875 92.984375 182.3515625 C90.51202242 178.26901106 87.9566758 174.24002896 85.3984375 170.2109375 C84.38402216 168.60943354 83.36969822 167.00787168 82.35546875 165.40625 C81.86643066 164.63442383 81.37739258 163.86259766 80.87353516 163.06738281 C72.88118044 150.44205926 65.09062661 137.69782874 57.33691406 124.92480469 C54.0908735 119.5800747 50.83800018 114.23950457 47.5859375 108.8984375 C46.40101204 106.95184095 45.21611337 105.00522809 44.03125 103.05859375 C43.53383301 102.24140869 43.03641602 101.42422363 42.52392578 100.58227539 C42.17313965 100.00598389 41.82235352 99.42969238 41.4609375 98.8359375 C36.3180037 102.18129958 31.3556144 105.57437108 26.6484375 109.5234375 C24.92281562 110.96519085 23.19397731 112.40310931 21.4609375 113.8359375 C20.75582031 114.44050781 20.05070313 115.04507813 19.32421875 115.66796875 C18.70933594 116.05339844 18.09445312 116.43882812 17.4609375 116.8359375 C13.66406572 115.57031357 13.40674754 114.46099111 11.52734375 111.0078125 C10.96732666 109.99154785 10.40730957 108.9752832 9.83032227 107.92822266 C9.23405029 106.82526855 8.63777832 105.72231445 8.0234375 104.5859375 C6.75347061 102.27556519 5.48262438 99.96567603 4.2109375 97.65625 C3.57671875 96.49899414 2.9425 95.34173828 2.2890625 94.14941406 C-0.24567828 89.5551964 -2.85592357 85.00651413 -5.4765625 80.4609375 C-10.81486684 71.16823308 -16.02291091 61.80499813 -21.20092773 52.42236328 C-24.78096271 45.94782159 -28.45122453 39.54425787 -32.26049805 33.20141602 C-33.5390625 30.8359375 -33.5390625 30.8359375 -33.5390625 28.8359375 C-34.1990625 28.8359375 -34.8590625 28.8359375 -35.5390625 28.8359375 C-35.81580811 29.5592627 -36.09255371 30.28258789 -36.37768555 31.02783203 C-37.48855108 33.71380541 -38.73676679 36.21142688 -40.12109375 38.765625 C-40.89054321 40.18766235 -40.89054321 40.18766235 -41.67553711 41.63842773 C-42.22862549 42.65235596 -42.78171387 43.66628418 -43.3515625 44.7109375 C-43.9297876 45.77449463 -44.5080127 46.83805176 -45.10375977 47.93383789 C-50.0524371 57.00607787 -55.11973665 66.0082961 -60.2265625 74.9921875 C-63.08499901 80.02330734 -65.90785966 85.0735702 -68.72363281 90.12866211 C-74.15099048 99.86540224 -79.63975397 109.56470708 -85.2265625 119.2109375 C-86.1091272 120.74512329 -86.1091272 120.74512329 -87.00952148 122.31030273 C-87.55938721 123.25462158 -88.10925293 124.19894043 -88.67578125 125.171875 C-89.15748779 126.00251465 -89.63919434 126.8331543 -90.13549805 127.68896484 C-91.4439647 129.69047045 -92.78057908 131.22727128 -94.5390625 132.8359375 C-96.72874661 130.50464562 -98.91579895 128.17090556 -101.1015625 125.8359375 C-101.74254883 125.15128418 -102.38353516 124.46663086 -103.04394531 123.76123047 C-106.8928931 119.63735784 -110.67604594 115.47695206 -114.3046875 111.15625 C-115.52413696 109.69842367 -115.52413696 109.69842367 -117.5390625 108.8359375 C-117.76207031 109.47917969 -117.98507812 110.12242187 -118.21484375 110.78515625 C-120.02969917 114.96628334 -122.36274858 118.75707722 -124.7265625 122.6484375 C-125.5167981 123.95699707 -125.5167981 123.95699707 -126.32299805 125.29199219 C-132.3136277 135.17491768 -138.45566459 144.96332689 -144.60253906 154.74951172 C-147.18372815 158.86340386 -149.75490079 162.9835117 -152.32592773 167.10375977 C-154.79852882 171.06468567 -157.27579563 175.02268237 -159.75341797 178.98046875 C-161.5198788 181.80526037 -163.28149518 184.63303413 -165.04296875 187.4609375 C-166.1247631 189.19025238 -167.2067822 190.9194267 -168.2890625 192.6484375 C-169.02322388 193.83143433 -169.02322388 193.83143433 -169.7722168 195.03833008 C-170.22636963 195.76173584 -170.68052246 196.4851416 -171.1484375 197.23046875 C-171.53999023 197.85800049 -171.93154297 198.48553223 -172.33496094 199.13208008 C-173.5390625 200.8359375 -173.5390625 200.8359375 -176.5390625 203.8359375 C-176.5390625 159.9459375 -176.5390625 116.0559375 -176.5390625 70.8359375 C-180.0040625 70.3409375 -180.0040625 70.3409375 -183.5390625 69.8359375 C-185.5190625 69.5059375 -187.4990625 69.1759375 -189.5390625 68.8359375 C-189.5390625 123.2859375 -189.5390625 177.7359375 -189.5390625 233.8359375 C-184.9190625 233.8359375 -180.2990625 233.8359375 -175.5390625 233.8359375 C-173.18850344 233.96204451 -170.83876654 234.12152975 -168.49609375 234.3515625 C-167.33005615 234.4659668 -166.16401855 234.58037109 -164.96264648 234.69824219 C-163.77098877 234.82618164 -162.57933105 234.95412109 -161.3515625 235.0859375 C-160.08707275 235.22161133 -158.82258301 235.35728516 -157.51977539 235.49707031 C-123.31243607 239.35866204 -85.50012282 251.51355846 -62.5390625 278.8359375 C-62.5390625 279.4959375 -62.5390625 280.1559375 -62.5390625 280.8359375 C-65.64413383 279.65275508 -68.65823792 278.32981589 -71.6640625 276.91796875 C-83.69385883 271.29402029 -95.82889376 266.67817829 -108.5390625 262.8359375 C-109.60012207 262.51334961 -110.66118164 262.19076172 -111.75439453 261.85839844 C-120.30790523 259.32999463 -128.8986749 257.34776561 -137.6640625 255.7109375 C-138.34926971 255.58209167 -139.03447693 255.45324585 -139.740448 255.32049561 C-161.71442205 251.24189813 -183.12628437 250.8359375 -205.5390625 250.8359375 C-205.5390625 186.8159375 -205.5390625 122.7959375 -205.5390625 56.8359375 C-196.02491987 56.8359375 -187.76928174 56.87862264 -178.6015625 58.5234375 C-177.57160156 58.70277832 -176.54164063 58.88211914 -175.48046875 59.06689453 C-166.87734797 60.63561984 -158.75772983 62.88208243 -150.5390625 65.8359375 C-149.29898438 66.25359375 -148.05890625 66.67125 -146.78125 67.1015625 C-126.6211747 74.06683775 -106.99425281 84.24695015 -91.11499023 98.6081543 C-89.43917288 100.0545608 -89.43917288 100.0545608 -86.5390625 100.8359375 C-85.38973117 96.7749668 -84.74868381 94.28416188 -86.8203125 90.48828125 C-87.408125 89.65425781 -87.9959375 88.82023437 -88.6015625 87.9609375 C-97.78597029 74.57162011 -100.99080503 58.61503894 -98.15087891 42.65429688 C-94.2785178 25.12548988 -83.41617205 9.53720959 -68.3515625 -0.1640625 C-47.88194134 -13.16230088 -20.43132901 -13.37199938 0 0 Z " fill="#FCFCFC" transform="translate(738.5390625,237.1640625)"/>
<path d="M0 0 C0.66 0 1.32 0 2 0 C3.71927949 2.13262543 5.31020721 4.25781141 6.875 6.5 C7.3282666 7.14493408 7.7815332 7.78986816 8.24853516 8.4543457 C17.23614107 21.41705065 22.4576656 35.94584447 22.08984375 51.79296875 C22.06941152 53.65950249 22.04923744 55.52603907 22.02929688 57.39257812 C21.98604555 60.28406346 21.93772771 63.17534907 21.88354492 66.06665039 C21.68523561 77.49923123 21.84142202 87.91373319 25 99 C25.50789062 97.94941406 26.01578125 96.89882812 26.5390625 95.81640625 C31.92523945 84.7809912 37.48518279 75.48540302 45.8359375 66.39453125 C54.36951711 56.95214082 60.73339556 45.97829321 65 34 C65.66 34 66.32 34 67 34 C70.25644276 43.76932827 69.12578329 57.95653757 65.33203125 67.3671875 C61.39821198 75.14253703 56.35748177 82.1510581 51 89 C49.59092717 86.18185434 50.49127309 84.82722796 51.4375 81.875 C51.72496094 80.96492188 52.01242187 80.05484375 52.30859375 79.1171875 C52.53675781 78.41851562 52.76492188 77.71984375 53 77 C43.22163749 89.44518865 37.09090608 101.10394001 36 117 C36.66 117 37.32 117 38 117 C38.185625 116.34 38.37125 115.68 38.5625 115 C40.64769843 110.64828154 43.67549136 107.46160178 47 104 C47.49113281 103.48308594 47.98226562 102.96617187 48.48828125 102.43359375 C57.92288507 93.48656635 70.6405667 89.11438722 82.87597656 85.61523438 C102.95727119 79.79858352 118.8859885 71.7744651 133.5390625 56.43359375 C135 55 135 55 136 55 C134.04862453 79.13543342 124.76906927 101.17349723 106.3046875 117.36328125 C103.56872635 119.61986459 100.79519883 121.81734127 98 124 C95.9946968 125.5975324 93.99457752 127.20159615 92 128.8125 C91.113125 129.52019531 90.22625 130.22789062 89.3125 130.95703125 C87.18361486 132.8377862 85.59671285 134.66270652 84 137 C85.6396875 136.566875 85.6396875 136.566875 87.3125 136.125 C88.87406165 135.74611156 90.43663859 135.37139244 92 135 C92.75152344 134.80921875 93.50304687 134.6184375 94.27734375 134.421875 C100.59022572 133.02566098 106.74971765 132.81838893 113.1875 132.8125 C114.03086914 132.81169434 114.87423828 132.81088867 115.74316406 132.81005859 C119.54814057 132.84367146 123.26332527 132.9802638 127.03515625 133.49609375 C142.92266825 135.51529478 156.54795115 133.15373902 171.50390625 127.671875 C174 127 174 127 177 128 C174.69678747 131.02427907 172.35825619 134.01845717 170 137 C169.45988281 137.69222656 168.91976563 138.38445312 168.36328125 139.09765625 C161.53893283 147.40915081 152.97106343 153.12114675 143 157 C142.34 157.33 141.68 157.66 141 158 C129.33433789 158.71450463 118.40174082 157.39736227 107 155 C107 154.34 107 153.68 107 153 C116.24 151.02 125.48 149.04 135 147 C129.96717399 146.8841549 124.93911149 146.7849588 119.90600586 146.7253418 C118.20011586 146.70045119 116.4943296 146.66652533 114.78881836 146.62280273 C99.69823672 146.24609218 89.06411703 149.06700904 76 157 C76 157.99 76 158.98 76 160 C76.99257813 159.96519531 77.98515625 159.93039062 79.0078125 159.89453125 C94.36538286 159.5215345 107.76788795 162.52849597 121.3671875 169.796875 C122.27339844 170.28027344 123.17960937 170.76367188 124.11328125 171.26171875 C125.95496221 172.25419463 127.78841771 173.26208724 129.61328125 174.28515625 C136.579321 177.95097291 142.17780354 178.64629295 150 178 C149.16215572 182.39156872 147.83398628 185.93333477 146 190 C146.66 190.66 147.32 191.32 148 192 C147.37996094 192.09796875 146.75992187 192.1959375 146.12109375 192.296875 C115.24458126 197.51037638 84.44936958 210.87756142 60.8828125 231.734375 C59.95082031 232.36085938 59.95082031 232.36085938 59 233 C56 232 56 232 54.5859375 229.35546875 C53.82151137 224.97785513 55.28411588 222.82949955 57.625 219.3125 C66.53347759 204.89480715 69.59706583 188.60123648 65.9375 171.875 C61.26973853 155.82139047 51.27852496 140.5846488 36.66796875 132.0546875 C26.09806163 126.46904571 16.59380078 123.48014153 4.5625 123.625 C3.12293945 123.60759766 3.12293945 123.60759766 1.65429688 123.58984375 C-14.20897396 123.65393777 -28.52519983 130.14800971 -40 141 C-52.74525371 154.22739324 -59.57509487 170.21343253 -59.56054688 188.52026367 C-59.13663995 201.05632509 -54.79220549 212.75804754 -47.22265625 222.73828125 C-46 225 -46 225 -46.24609375 227.60546875 C-46.81393297 229.40902025 -47.40206694 231.20620083 -48 233 C-51.6274984 232.40358697 -53.50092934 230.95111559 -56.25 228.5625 C-79.91476504 209.28136727 -109.23434167 197.55451363 -139 192 C-138.34 191.67 -137.68 191.34 -137 191 C-137.3609375 190.22914063 -137.721875 189.45828125 -138.09375 188.6640625 C-138.5578125 187.66117188 -139.021875 186.65828125 -139.5 185.625 C-139.9640625 184.62726563 -140.428125 183.62953125 -140.90625 182.6015625 C-142 180 -142 180 -142 178 C-132.96494552 178.37567794 -124.61729206 180.42906096 -116 183 C-115.33145996 183.19158691 -114.66291992 183.38317383 -113.97412109 183.58056641 C-99.57529119 187.74873873 -86.37102787 194.30426803 -73 201 C-72.34 201.33 -71.68 201.66 -71 202 C-71.495 200.4840625 -71.495 200.4840625 -72 198.9375 C-73.99115389 191.05761439 -73.88627444 181.89217225 -72 174 C-75.14754745 174.2528023 -78.29243394 174.5306204 -81.4375 174.8125 C-82.31599609 174.88275391 -83.19449219 174.95300781 -84.09960938 175.02539062 C-89.40355794 175.51468477 -94.04308885 176.46811291 -99.01806641 178.39160156 C-105.8299133 180.48264892 -112.87642657 176.69788584 -119 174 C-119 173.34 -119 172.68 -119 172 C-92.15372525 160.56807847 -92.15372525 160.56807847 -76.9375 160.875 C-76.07189453 160.88402344 -75.20628906 160.89304687 -74.31445312 160.90234375 C-72.20951221 160.92560277 -70.10471658 160.96145992 -68 161 C-68.30683249 159.05339416 -68.30683249 159.05339416 -69 157 C-86.31849218 145.1244625 -106.89262094 144.48657762 -127 147 C-119.08 148.98 -111.16 150.96 -103 153 C-107.99270203 157.99270203 -117.86751411 158.21899447 -124.625 158.4375 C-140.6494398 157.97470029 -151.45358997 148.04295927 -162.1171875 137.18359375 C-169 129.86245714 -169 129.86245714 -169 126 C-167.865625 126.391875 -166.73125 126.78375 -165.5625 127.1875 C-164.73878906 127.455625 -163.91507813 127.72375 -163.06640625 128 C-161.43346073 128.53252746 -159.80159311 129.06895557 -158.17919922 129.6328125 C-145.96094222 133.86045698 -135.05271786 135.19964661 -122.16796875 133.4921875 C-106.36929869 131.40263012 -91.03286397 132.85482334 -76 138 C-78.12311963 136.16444989 -80.24811556 134.331181 -82.375 132.5 C-83.01405273 131.94900635 -83.65310547 131.3980127 -84.31152344 130.83032227 C-87.88678237 127.76229086 -91.50736245 124.80127538 -95.25 121.9375 C-112.64795316 108.04765871 -123.54813217 86.89133275 -127 65 C-127.18551488 62.27086997 -127.16094154 59.73600613 -127 57 C-122.93549433 59.95109055 -119.03438109 62.92947885 -115.375 66.375 C-104.27212122 76.17929647 -89.89797283 81.42808173 -76.03125 85.97265625 C-74.44739502 86.49182617 -74.44739502 86.49182617 -72.83154297 87.02148438 C-70.74543499 87.69874678 -68.65603162 88.36596897 -66.56298828 89.02148438 C-60.23811973 91.05295081 -54.69165175 93.58580055 -49 97 C-48.34 97.33 -47.68 97.66 -47 98 C-47.43570313 96.99324219 -47.87140625 95.98648438 -48.3203125 94.94921875 C-50.98173162 87.85262111 -51.94155028 80.23107771 -53.22412109 72.78588867 C-55.55978705 59.34685115 -59.45506942 47.48592524 -67 36 C-54.49766784 39.7635508 -44.69372905 47.99972016 -38.28515625 59.26171875 C-34.63964411 67.02920814 -33.5446672 75.51070441 -33 84 C-35.61527381 81.63379989 -37.26440562 79.057952 -39 76 C-37.17670562 84.51625698 -35.01362598 92.63477519 -31.5 100.625 C-31.21568115 101.2746875 -30.9313623 101.924375 -30.63842773 102.59375 C-28.78105503 106.67351597 -26.70669724 110.42329294 -24 114 C-23.01 114.33 -22.02 114.66 -21 115 C-21.2165625 114.43796875 -21.433125 113.8759375 -21.65625 113.296875 C-28.67683864 92.10509818 -21.89938099 73.49520949 -12.51147461 54.48217773 C-9.36669895 48.05657068 -6.54401924 41.67485888 -4.3125 34.875 C-4.08127441 34.17213867 -3.85004883 33.46927734 -3.61181641 32.74511719 C-1.23083471 25.09688937 -0.78618349 17.50219464 -0.4375 9.5625 C-0.37272461 8.17901367 -0.37272461 8.17901367 -0.30664062 6.76757812 C-0.20145069 4.51183837 -0.09930893 2.25600501 0 0 Z " fill="#B3813A" transform="translate(700,105)"/>
<path d="M0 0 C4.15327854 4.74804415 7.11767897 10.11978321 10.25 15.5625 C11.15395508 17.12218506 11.15395508 17.12218506 12.07617188 18.71337891 C17.59054572 28.24500514 23.05229765 37.80734257 28.49316406 47.38110352 C31.88603001 53.34200008 35.32827141 59.25404899 38.95117188 65.07861328 C40 67 40 67 40 69 C45.06127656 66.2870022 49.27162768 63.29915595 53.5625 59.5 C57.54774225 55.99680501 61.52136532 52.85555053 66 50 C70.80634337 56.65569404 75.15014291 63.45332235 79.25 70.5625 C83.60864999 78.0302618 88.09395022 85.3716478 92.8371582 92.6003418 C96.46303963 98.13623323 99.96618215 103.74103677 103.4375 109.375 C107.67582432 116.25002934 111.93623531 123.10950581 116.25 129.9375 C116.74008545 130.71391846 117.2301709 131.49033691 117.73510742 132.2902832 C120.05093652 135.9506868 122.38285804 139.59910504 124.75 143.2265625 C125.1737793 143.87761963 125.59755859 144.52867676 126.03417969 145.19946289 C126.82230235 146.40712636 127.61438485 147.61221852 128.41113281 148.81420898 C131 152.77939755 131 152.77939755 131 155 C129.72769531 155.09796875 128.45539063 155.1959375 127.14453125 155.296875 C83.09132785 158.92672697 39.66329439 173.74386205 9.36083984 207.36279297 C5.34822602 212.1903115 2.22331347 217.63214329 -1 223 C-2.31151875 225.0157277 -3.65209412 227.00822837 -5 229 C-8.64983463 227.78338846 -8.78827666 227.03363722 -10.5625 223.75 C-16.41141862 213.69271311 -23.39501811 205.44099433 -31.75 197.4375 C-40.31810845 189.18354491 -45.92739237 180.57513773 -46.3125 168.3125 C-45.9983539 151.88024249 -32.34613528 137.72642495 -21.203125 126.95898438 C-19.92837597 125.742134 -18.65232758 124.52664339 -17.375 123.3125 C-3.78085134 110.34923811 9.64930024 96.72665348 10.16796875 76.69921875 C10.29862969 62.52534694 9.26905136 49.21450521 5.61132812 35.44067383 C4.05308539 29.48792592 2.86420917 23.48792656 1.75 17.4375 C1.57484863 16.50921387 1.39969727 15.58092773 1.21923828 14.62451172 C0.32561691 9.66504811 -0.19352189 5.03848076 0 0 Z " fill="#FDFDFE" transform="translate(710,304)"/>
<path d="M0 0 C0.33 0 0.66 0 1 0 C1.08636719 1.13953125 1.17273438 2.2790625 1.26171875 3.453125 C2.10293406 13.28128894 3.60101954 22.56549207 6.32299805 32.05957031 C8.09735852 38.45177519 9.51567592 44.90549501 6.5 51.0625 C1.63651276 56.77709751 -3.55957276 61.70723425 -9.4375 66.375 C-29.53426057 82.64116256 -38.58619868 105.4066002 -44 130 C-44.18836426 130.83885742 -44.37672852 131.67771484 -44.57080078 132.54199219 C-46.07687228 139.8892691 -46.30051286 147.01567727 -46.25 154.5 C-46.25773438 155.64597656 -46.26546875 156.79195312 -46.2734375 157.97265625 C-46.25701099 165.19210704 -45.56445477 171.95104433 -44 179 C-47.61319119 177.58494646 -51.08555138 175.9985635 -54.56762695 174.28417969 C-78.708595 162.50701273 -103.47348512 158.71649539 -130 156 C-128.72341094 152.58060528 -127.25086771 149.60515497 -125.26953125 146.54296875 C-124.72176025 145.69041504 -124.17398926 144.83786133 -123.60961914 143.95947266 C-123.01656982 143.04472168 -122.42352051 142.1299707 -121.8125 141.1875 C-120.53558099 139.19978208 -119.25956994 137.21148066 -117.984375 135.22265625 C-117.32501953 134.19543457 -116.66566406 133.16821289 -115.98632812 132.10986328 C-112.80994263 127.13680546 -109.68440148 122.13238189 -106.5625 117.125 C-105.94455566 116.13387207 -105.32661133 115.14274414 -104.68994141 114.12158203 C-103.43090569 112.10210308 -102.17195415 110.08257165 -100.91308594 108.06298828 C-98.97113382 104.95378318 -97.02175855 101.84934769 -95.0703125 98.74609375 C-87.85931012 87.26864166 -80.77845774 75.73869388 -74 64 C-70.29703581 65.51294925 -68.2799836 67.6805874 -65.6875 70.6875 C-62.91600845 73.85165757 -60.13121 76.93261611 -57.125 79.875 C-54.84300089 82.11464182 -52.8054967 84.3448578 -51 87 C-47.13727006 85.71242335 -46.91495093 84.5062345 -45.06640625 80.953125 C-44.50630859 79.89150146 -43.94621094 78.82987793 -43.36914062 77.73608398 C-42.77294922 76.58567627 -42.17675781 75.43526855 -41.5625 74.25 C-40.29789152 71.84764741 -39.02589505 69.44923249 -37.75390625 67.05078125 C-37.43507477 66.44762589 -37.11624329 65.84447052 -36.78775024 65.22303772 C-33.96581456 59.89772838 -31.01408548 54.65581751 -28 49.4375 C-23.52586209 41.67725507 -19.11771518 33.88318906 -14.75 26.0625 C-9.88084902 17.34718474 -4.98307496 8.65074193 0 0 Z " fill="#FCFCFD" transform="translate(697,303)"/>
<path d="M0 0 C2.5015874 0.98628894 4.98465362 1.99323386 7.4453125 3.078125 C13.69157926 5.80972854 19.99205192 8.00184455 26.5 10 C41.46298693 14.63846718 56.17495608 20.0399159 65 34 C65.0119586 37.05542123 64.03446928 37.9648924 61.890625 40.1484375 C61.01921875 40.88320312 60.1478125 41.61796875 59.25 42.375 C56.25190763 44.96620841 53.45576007 47.44841871 51 50.5625 C50.34 51.366875 49.68 52.17125 49 53 C48.34 53 47.68 53 47 53 C45.87503075 51.52477647 44.82495715 49.99209667 43.8125 48.4375 C38.69552728 40.95155843 32.70356989 35.68166203 25.61328125 30.09765625 C15.8416347 22.25404759 5.68597117 13.39927875 0 2 C0 1.34 0 0.68 0 0 Z " fill="#FEFCF7" transform="translate(594,193)"/>
<path d="M0 0 C0.99 0.495 0.99 0.495 2 1 C-6.06539495 13.05064893 -15.67881142 22.39537786 -27.1237793 31.20703125 C-35.41031011 37.59396103 -40.64069529 43.99180698 -46 53 C-46.69351563 52.30003906 -47.38703125 51.60007813 -48.1015625 50.87890625 C-50.08488555 48.89208404 -52.10329647 46.95037746 -54.1484375 45.02734375 C-55.22406912 43.99751153 -56.29958887 42.96756247 -57.375 41.9375 C-57.93316406 41.42123047 -58.49132812 40.90496094 -59.06640625 40.37304688 C-62.98954221 36.57099536 -62.98954221 36.57099536 -63.0390625 33.8671875 C-54.26533895 18.10087225 -37.5659444 12.93788692 -21.38598633 8.24121094 C-13.98739679 6.07000053 -6.90971441 3.45485721 0 0 Z " fill="#FDFBF5" transform="translate(812,193)"/>
<path d="M0 0 C0.33 0 0.66 0 1 0 C1.76481866 16.24814751 0.06199364 27.39603149 -11 40 C-11.66902344 40.78890625 -12.33804688 41.5778125 -13.02734375 42.390625 C-17.5423839 47.5833294 -22.39961062 52.23842609 -27.53540039 56.80175781 C-31.95818261 60.80166435 -35.606033 65.16091447 -39.2578125 69.8828125 C-41 72 -41 72 -43 73 C-38.38582915 45.19354936 -27.26790772 23.95956239 -5.7265625 5.5078125 C-4.28635522 4.25007492 -2.91455414 2.91455414 -1.5625 1.5625 C-1.046875 1.046875 -0.53125 0.53125 0 0 Z " fill="#F8F9FB" transform="translate(707,367)"/>
<path d="M0 0 C0.66 0.33 1.32 0.66 2 1 C3.34337975 6.23453068 3.06208497 11.50959735 2.95703125 16.8671875 C2.93461498 18.82551039 2.91316269 20.7838445 2.89257812 22.7421875 C2.85578364 25.79393704 2.81308716 28.84509613 2.75317383 31.89648438 C2.53725416 43.45997242 2.8172178 53.88539925 6.1315918 65.02001953 C7 68 7 68 7 71 C-0.26 71 -7.52 71 -15 71 C-17.3036166 64.8570224 -18.53218167 61.03908439 -18.4375 54.8125 C-18.42630127 54.06621338 -18.41510254 53.31992676 -18.40356445 52.55102539 C-17.97997208 39.76237409 -12.37033344 29.03996956 -6.97338867 17.66381836 C-4.2262557 11.85430765 -1.89274933 6.1434692 0 0 Z " fill="#FDFCF8" transform="translate(707,144)"/>
<path d="M0 0 C14.31630284 -0.88551598 26.5780838 2.98281176 39 10 C39 10.66 39 11.32 39 12 C38.19502075 12.28496338 38.19502075 12.28496338 37.3737793 12.57568359 C23.95231781 17.37771409 11.44706626 23.05809333 -1 30 C-2.09474162 26.71577515 -1.85656209 26.1647904 -1 23 C-0.85557049 21.19540394 -0.75394371 19.38712409 -0.68359375 17.578125 C-0.64169922 16.55332031 -0.59980469 15.52851563 -0.55664062 14.47265625 C-0.49766602 12.87744141 -0.49766602 12.87744141 -0.4375 11.25 C-0.39431641 10.17105469 -0.35113281 9.09210938 -0.30664062 7.98046875 C-0.20071011 5.32043572 -0.09863579 2.66031188 0 0 Z " fill="#FEFCF6" transform="translate(781,278)"/>
<path d="M0 0 C0.33 0 0.66 0 1 0 C1.33 41.58 1.66 83.16 2 126 C2.66 126.33 3.32 126.66 4 127 C3.03114628 128.68496298 2.03013277 130.35178756 1 132 C0.67 132 0.34 132 0 132 C0 88.44 0 44.88 0 0 Z " fill="#E8EFF7" transform="translate(562,309)"/>
<path d="M0 0 C0.33 0 0.66 0 1 0 C1 43.23 1 86.46 1 131 C0.01 130.34 -0.98 129.68 -2 129 C-2 128.34 -2 127.68 -2 127 C-1.34 127 -0.68 127 0 127 C0 85.09 0 43.18 0 0 Z " fill="#E7EEF6" transform="translate(845,309)"/>
<path d="M0 0 C-2.40336322 0.8498379 -3.62938565 1.12609248 -6.078125 0.29296875 C-6.79484375 -0.07183594 -7.5115625 -0.43664062 -8.25 -0.8125 C-15.95891572 -4.70915995 -23.51259944 -5.34403777 -32 -5.625 C-32.96550781 -5.66367188 -33.93101562 -5.70234375 -34.92578125 -5.7421875 C-37.2836744 -5.83556941 -39.64157756 -5.92134329 -42 -6 C-42 -5.34 -42 -4.68 -42 -4 C-40.68 -3.34 -39.36 -2.68 -38 -2 C-41.62187387 -2.55721136 -45.2215131 -3.2089771 -48.8125 -3.9375 C-49.58207031 -4.09089844 -50.35164062 -4.24429688 -51.14453125 -4.40234375 C-51.75683594 -4.59957031 -52.36914062 -4.79679688 -53 -5 C-53.33 -5.66 -53.66 -6.32 -54 -7 C-34.95897067 -9.344391 -17.43374783 -8.71687392 0 0 Z " fill="#FAF4DD" transform="translate(626,258)"/>
<path d="M0 0 C0.66 0.33 1.32 0.66 2 1 C3.14875907 5.7331782 3.15383725 10.46938623 3.125 15.3125 C3.12306641 16.11341064 3.12113281 16.91432129 3.11914062 17.73950195 C3.04357657 28.83377495 2.51029217 39.91878836 2 51 C1.34 50.67 0.68 50.34 0 50 C-0.02907084 46.41668375 -0.04682263 42.83339792 -0.0625 39.25 C-0.07087891 38.23421875 -0.07925781 37.2184375 -0.08789062 36.171875 C-0.09111328 35.1921875 -0.09433594 34.2125 -0.09765625 33.203125 C-0.10289307 32.30239258 -0.10812988 31.40166016 -0.11352539 30.47363281 C-0.00710323 28.15477412 0.39689346 26.22976432 1 24 C1.09214964 21.98083881 1.13000931 19.95875663 1.125 17.9375 C1.12886719 16.37322266 1.12886719 16.37322266 1.1328125 14.77734375 C1.12137157 11.91319372 1.12137157 11.91319372 0 9 C-0.99 9.66 -1.98 10.32 -3 11 C-2.01 7.37 -1.02 3.74 0 0 Z " fill="#F7EBD2" transform="translate(707,144)"/>
<path d="M0 0 C0.33 0 0.66 0 1 0 C1.01981934 1.22106445 1.03963867 2.44212891 1.06005859 3.70019531 C1.13616123 8.23279354 1.22487161 12.7650727 1.31738281 17.29736328 C1.35565327 19.2585622 1.39050954 21.21983084 1.421875 23.18115234 C1.4675674 26.00122997 1.525555 28.82082838 1.5859375 31.640625 C1.60326431 32.95489471 1.60326431 32.95489471 1.62094116 34.29571533 C1.64081085 35.11626404 1.66068054 35.93681274 1.68115234 36.78222656 C1.69447601 37.50170471 1.70779968 38.22118286 1.7215271 38.96246338 C2.04669514 41.34166003 2.74607346 42.95879833 4 45 C4.66 45.33 5.32 45.66 6 46 C5.34 47.98 4.68 49.96 4 52 C3.34 51.67 2.68 51.34 2 51 C-0.82271901 42.03980939 -1.40026338 33.3061236 -1 24 C-0.92153463 21.94923174 -0.84344458 19.89844911 -0.765625 17.84765625 C-0.53248763 11.89739452 -0.27346239 5.94853436 0 0 Z " fill="#EBDBBF" transform="translate(722,153)"/>
<path d="M0 0 C0 0.66 0 1.32 0 2 C-0.66 2.66 -1.32 3.32 -2 4 C-0.78183594 4.06058594 0.43632813 4.12117188 1.69140625 4.18359375 C3.31511277 4.26806403 4.93881022 4.35270872 6.5625 4.4375 C7.36236328 4.47681641 8.16222656 4.51613281 8.98632812 4.55664062 C21.63455401 5.22777098 21.63455401 5.22777098 27.1875 7.4375 C27.85136719 7.70046875 28.51523437 7.9634375 29.19921875 8.234375 C31.17867504 9.07596596 33.10827457 9.97531539 35 11 C35 11.66 35 12.32 35 13 C34.44054687 12.81824219 33.88109375 12.63648438 33.3046875 12.44921875 C20.5902069 8.46316776 8.26089757 6.4994364 -5 6 C-5.33 5.01 -5.66 4.02 -6 3 C-2.25 0 -2.25 0 0 0 Z " fill="#F6E9CD" transform="translate(781,259)"/>
<path d="M0 0 C0.99 0 1.98 0 3 0 C5.7091347 5.99579811 5.14530622 11.89648151 4.875 18.3125 C4.85179687 19.40240234 4.82859375 20.49230469 4.8046875 21.61523438 C4.53755324 28.55655124 3.37852405 33.90634629 0 40 C-0.66 40 -1.32 40 -2 40 C-1.79503906 39.32453125 -1.59007812 38.6490625 -1.37890625 37.953125 C-1.10949219 37.06109375 -0.84007812 36.1690625 -0.5625 35.25 C-0.29566406 34.36828125 -0.02882813 33.4865625 0.24609375 32.578125 C0.61927734 31.30195313 0.61927734 31.30195313 1 30 C1.17853516 29.40316406 1.35707031 28.80632812 1.54101562 28.19140625 C2.0977281 25.53340029 2.112102 23.07517615 2.09765625 20.359375 C2.09443359 19.28945312 2.09121094 18.21953125 2.08789062 17.1171875 C2.07951172 16.00601563 2.07113281 14.89484375 2.0625 13.75 C2.05798828 12.62335938 2.05347656 11.49671875 2.04882812 10.3359375 C2.03705397 7.55723783 2.0206084 4.77864591 2 2 C1.34 2 0.68 2 0 2 C0 1.34 0 0.68 0 0 Z " fill="#E3D5BA" transform="translate(765,137)"/>
<path d="M0 0 C0.66 0.33 1.32 0.66 2 1 C0.02 3.31 -1.96 5.62 -4 8 C-0.04 8 3.92 8 8 8 C8 8.33 8 8.66 8 9 C7.31035156 9.12117187 6.62070312 9.24234375 5.91015625 9.3671875 C-0.09799013 10.43859906 -6.05175157 11.63482823 -12 13 C-9.91093035 9.13961564 -7.64201183 6.53447389 -4.3125 3.6875 C-3.50425781 2.99011719 -2.69601562 2.29273438 -1.86328125 1.57421875 C-1.24839844 1.05472656 -0.63351562 0.53523437 0 0 Z " fill="#FAF2DF" transform="translate(795,230)"/>
<path d="M0 0 C2.64 0.33 5.28 0.66 8 1 C2.89416969 6.10583031 -7.12725482 6.2106235 -14 6.3125 C-18.17371296 6.29684858 -21.20288703 5.75197676 -25 4 C-22.18736298 3.19729236 -19.73323489 2.8896191 -16.8125 2.9375 C-15.64074219 2.94910156 -15.64074219 2.94910156 -14.4453125 2.9609375 C-12 3 -12 3 -9.5546875 3.0390625 C-8.38292969 3.05066406 -8.38292969 3.05066406 -7.1875 3.0625 C-6.47980469 3.07410156 -5.77210938 3.08570313 -5.04296875 3.09765625 C-2.91067621 2.99573022 -1.04839128 2.58459706 1 2 C0.67 1.34 0.34 0.68 0 0 Z " fill="#AB864D" transform="translate(589,257)"/>
<path d="M0 0 C3 1 3 1 5 4 C5.66 3.34 6.32 2.68 7 2 C7.33 5.3 7.66 8.6 8 12 C5 9 5 9 2 4 C3.32 9.94 4.64 15.88 6 22 C5.34 22.33 4.68 22.66 4 23 C1.51394597 15.1977858 -0.56993514 8.26405949 0 0 Z " fill="#B48E55" transform="translate(659,177)"/>
<path d="M0 0 C2.53522879 1.00038758 5.05269689 2.02299941 7.55078125 3.11328125 C15.85818977 6.72060008 24.33464524 9.41578887 33 12 C33 12.33 33 12.66 33 13 C25.87254562 12.74544806 20.0466202 10.71284751 13.49804688 8.08349609 C10.50968914 6.89176213 8.25048177 6 5 6 C4.01 6.495 4.01 6.495 3 7 C0 2.25 0 2.25 0 0 Z " fill="#FBF4DE" transform="translate(594,193)"/>
<path d="M0 0 C3.26256822 3.02952764 5.8453557 6.0897196 8 10 C7.8125 12.6875 7.8125 12.6875 7 15 C6.67 15.99 6.34 16.98 6 18 C2.13515355 17.40816737 -0.08234694 15.57924369 -3.0625 13.125 C-3.91972656 12.42632812 -4.77695312 11.72765625 -5.66015625 11.0078125 C-7.53236022 9.40128021 -9.29407006 7.77864171 -11 6 C-10.236875 6.309375 -9.47375 6.61875 -8.6875 6.9375 C-6.81210323 7.67893593 -4.91315348 8.36228217 -3 9 C-2.175 9.845625 -1.35 10.69125 -0.5 11.5625 C1.7760635 14.34905007 1.7760635 14.34905007 5 14 C4.52088889 8.96933334 2.88483955 6.09461097 0 2 C0 1.34 0 0.68 0 0 Z " fill="#AD8A53" transform="translate(646,320)"/>
<path d="M0 0 C4.42857143 5.14285714 4.42857143 5.14285714 5 9 C4.34 9 3.68 9 3 9 C3.23710693 9.57967529 3.47421387 10.15935059 3.71850586 10.7565918 C4.79608347 13.39838646 5.86684569 16.04289235 6.9375 18.6875 C7.31068359 19.59951172 7.68386719 20.51152344 8.06835938 21.45117188 C8.42607422 22.33740234 8.78378906 23.22363281 9.15234375 24.13671875 C9.6472229 25.35427856 9.6472229 25.35427856 10.15209961 26.59643555 C11.01772244 29.05023824 11.55173421 31.43990426 12 34 C5.0168258 25.37729795 0 11.02358383 0 0 Z " fill="#FAF3DD" transform="translate(660,179)"/>
<path d="M0 0 C6.6 0 13.2 0 20 0 C19.67 0.66 19.34 1.32 19 2 C16.26953125 2.8515625 16.26953125 2.8515625 12.8125 3.625 C11.12060547 4.01558594 11.12060547 4.01558594 9.39453125 4.4140625 C6.18079796 4.96879207 3.25233567 5.1085757 0 5 C1.32 4.01 2.64 3.02 4 2 C2.68 1.34 1.36 0.68 0 0 Z " fill="#FCF6E1" transform="translate(816,251)"/>
<path d="M0 0 C0.66 0 1.32 0 2 0 C3.4453056 4.33591679 3.22484973 8.5197324 3.25 13.0625 C3.270625 13.96677734 3.29125 14.87105469 3.3125 15.80273438 C3.34988685 22.34076003 2.20715208 27.85376391 0 34 C-1.15886546 30.30872353 -0.54599706 27.95417168 0.47949219 24.23828125 C1.37997371 20.36604175 1.4701795 16.46082443 1.625 12.5 C1.66367187 11.67757812 1.70234375 10.85515625 1.7421875 10.0078125 C1.83531692 8.0055299 1.91868985 6.00279738 2 4 C1.34 4 0.68 4 0 4 C-0.33 5.65 -0.66 7.3 -1 9 C-1.66 9 -2.32 9 -3 9 C-2.01 6.03 -1.02 3.06 0 0 Z " fill="#A77F44" transform="translate(765,139)"/>
<path d="M0 0 C6.625 -0.125 6.625 -0.125 10 1 C10 1.66 10 2.32 10 3 C13.63 3 17.26 3 21 3 C21 3.66 21 4.32 21 5 C25.29 5 29.58 5 34 5 C34 5.33 34 5.66 34 6 C21.68853888 6.69338642 11.62865637 5.07512364 0 1 C0 0.67 0 0.34 0 0 Z " fill="#ECDFC3" transform="translate(540,234)"/>
<path d="M0 0 C0.33 0 0.66 0 1 0 C1.20496094 0.83144531 1.40992188 1.66289062 1.62109375 2.51953125 C1.89050781 3.60621094 2.15992188 4.69289062 2.4375 5.8125 C2.83775391 7.43091797 2.83775391 7.43091797 3.24609375 9.08203125 C3.76077412 11.0740843 4.34937175 13.04811524 5 15 C4.45859375 14.72414062 3.9171875 14.44828125 3.359375 14.1640625 C0.68095688 12.84259131 -2.02885041 11.60599624 -4.75 10.375 C-5.73484375 9.92898437 -6.7196875 9.48296875 -7.734375 9.0234375 C-8.48203125 8.68570313 -9.2296875 8.34796875 -10 8 C-10 7.67 -10 7.34 -10 7 C-7.98177083 7.26041667 -5.96354167 7.52083333 -3.9453125 7.78125 C-1.99501656 8.0372485 -1.99501656 8.0372485 0 8 C0 5.36 0 2.72 0 0 Z " fill="#F4E7CB" transform="translate(649,189)"/>
<path d="M0 0 C0.33 0 0.66 0 1 0 C0.45136137 6.7857936 -0.54267938 13.35009036 -2 20 C-2.66 19.67 -3.32 19.34 -4 19 C-4.48990279 13.93767116 -2.7106322 9.67369154 -1 5 C-2.32 5.33 -3.64 5.66 -5 6 C-3.35830472 3.97945196 -1.69088222 1.97956942 0 0 Z " fill="#AD8A54" transform="translate(835,160)"/>
<path d="M0 0 C1.31611677 0.95336021 2.62778961 1.91285774 3.9375 2.875 C4.66839844 3.40867188 5.39929688 3.94234375 6.15234375 4.4921875 C8 6 8 6 9 8 C8.40574219 7.80664062 7.81148437 7.61328125 7.19921875 7.4140625 C0.86027437 5.42266784 -5.44364086 4.05948769 -12 3 C-12 2.67 -12 2.34 -12 2 C-8.04 2 -4.08 2 0 2 C0 1.34 0 0.68 0 0 Z " fill="#F6E9CA" transform="translate(616,236)"/>
<path d="M0 0 C-1.61010527 4.07376031 -4.53822271 6.76507069 -7.625 9.75 C-8.140625 10.25660156 -8.65625 10.76320312 -9.1875 11.28515625 C-10.45383339 12.52803902 -11.7263144 13.76465276 -13 15 C-13.99 14.67 -14.98 14.34 -16 14 C-14.90234298 12.90234298 -13.80394073 11.8054267 -12.703125 10.7109375 C-11.37018475 9.37188284 -10.04980812 8.02031941 -8.734375 6.6640625 C-7.93515625 5.84679687 -7.1359375 5.02953125 -6.3125 4.1875 C-5.16201172 3.00220703 -5.16201172 3.00220703 -3.98828125 1.79296875 C-2 0 -2 0 0 0 Z " fill="#AF864A" transform="translate(657,232)"/>
<path d="M0 0 C0.66 0 1.32 0 2 0 C2.96345444 1.87237371 3.92053102 3.7480299 4.875 5.625 C5.67550781 7.19121094 5.67550781 7.19121094 6.4921875 8.7890625 C9.13527825 14.41761327 10.24969148 18.7577129 10 25 C9.67 25 9.34 25 9 25 C8.77957031 24.03513672 8.77957031 24.03513672 8.5546875 23.05078125 C6.83851449 16.13677391 4.3061795 9.96411819 1.20703125 3.5546875 C0 1 0 1 0 0 Z " fill="#FAF2DD" transform="translate(711,118)"/>
<path d="M0 0 C0.33 0.99 0.66 1.98 1 3 C0.67 3.66 0.34 4.32 0 5 C0.66 5.66 1.32 6.32 2 7 C-4.65551466 8.28134207 -11.25390382 9.33644956 -18 10 C-15.3851183 8.25674553 -13.9946567 7.58412043 -11.0625 6.875 C-10.39347656 6.70742188 -9.72445312 6.53984375 -9.03515625 6.3671875 C-7 6 -7 6 -3 6 C-3 5.01 -3 4.02 -3 3 C-1.5 1.3125 -1.5 1.3125 0 0 Z " fill="#AA844C" transform="translate(846,290)"/>
<path d="M0 0 C0.91330078 0.00451172 1.82660156 0.00902344 2.76757812 0.01367188 C4.99095738 0.0253126 7.21419121 0.04166149 9.4375 0.0625 C9.4375 0.3925 9.4375 0.7225 9.4375 1.0625 C-1.4525 1.5575 -1.4525 1.5575 -12.5625 2.0625 C-12.5625 2.7225 -12.5625 3.3825 -12.5625 4.0625 C-14.8725 3.4025 -17.1825 2.7425 -19.5625 2.0625 C-19.5625 1.7325 -19.5625 1.4025 -19.5625 1.0625 C-12.99550475 0.21406826 -6.61699407 -0.06311146 0 0 Z " fill="#C9B28E" transform="translate(591.5625,249.9375)"/>
<path d="M0 0 C0.8353125 0.19916016 0.8353125 0.19916016 1.6875 0.40234375 C12.26185772 2.86764307 12.26185772 2.86764307 23 2 C21.4462104 3.83055837 20.50000807 4.88437313 18.125 5.43359375 C11.50286013 5.4457668 6.07103889 3.54189292 0 1 C0 0.67 0 0.34 0 0 Z " fill="#F9F1D9" transform="translate(582,280)"/>
<path d="M0 0 C2.04442328 3.54366701 2.26700438 5.60202629 3 10 C-2.28 10 -7.56 10 -13 10 C-13 9.67 -13 9.34 -13 9 C-7.06 8.505 -7.06 8.505 -1 8 C-0.67 5.36 -0.34 2.72 0 0 Z " fill="#EAD8B7" transform="translate(711,205)"/>
<path d="M0 0 C1.25541557 3.76624671 0.37061958 5.37188934 -1 9 C-1.99 9 -2.98 9 -4 9 C-5.70532323 10.94009522 -5.70532323 10.94009522 -7 13 C-7.66 12.67 -8.32 12.34 -9 12 C-6 8 -3 4 0 0 Z " fill="#F7ECD1" transform="translate(753,181)"/>
<path d="M0 0 C0.66 0 1.32 0 2 0 C2 0.99 2 1.98 2 3 C2.99 3.33 3.98 3.66 5 4 C2.69 7.3 0.38 10.6 -2 14 C-3 12 -3 12 -2.44140625 10.1953125 C-2.15136719 9.51210937 -1.86132812 8.82890625 -1.5625 8.125 C-0.23097684 4.98427722 0 3.59943974 0 0 Z " fill="#AF9061" transform="translate(753,180)"/>
<path d="M0 0 C5.31027254 1.46032495 9.46330032 3.98320986 14 7 C13.01 7.495 13.01 7.495 12 8 C9.5249829 6.88568235 7.32116581 5.41849022 5 4 C5.33 5.65 5.66 7.3 6 9 C3.59927045 6.11912454 1.52708963 3.43595166 0 0 Z " fill="#A88654" transform="translate(633,141)"/>
<path d="M0 0 C0.33 0 0.66 0 1 0 C1.5326514 6.258654 -0.18150494 10.45108785 -3 16 C-3.66 16 -4.32 16 -5 16 C-3.41078475 10.63904723 -1.81027062 5.29156027 0 0 Z " fill="#F5EBD5" transform="translate(768,161)"/>
<path d="M0 0 C5.70709064 0.46588495 9.15939723 1.93757784 14 5 C14 5.66 14 6.32 14 7 C9.0276578 5.50829734 4.58154261 3.39542583 0 1 C0 0.67 0 0.34 0 0 Z " fill="#F5EAD2" transform="translate(609,297)"/>
<path d="M0 0 C4.23429756 1.31061591 8.07407404 2.94356259 12 5 C12 5.66 12 6.32 12 7 C9.69 7.66 7.38 8.32 5 9 C5 7 5 7 7 5 C4.69 4.01 2.38 3.02 0 2 C0 1.34 0 0.68 0 0 Z " fill="#FAF2D9" transform="translate(808,283)"/>
<path d="M0 0 C4.62 0 9.24 0 14 0 C13.67 2.31 13.34 4.62 13 7 C12.67 7 12.34 7 12 7 C12 5.35 12 3.7 12 2 C8.04 1.67 4.08 1.34 0 1 C0 0.67 0 0.34 0 0 Z " fill="#F9EFD7" transform="translate(614,279)"/>
<path d="M0 0 C0.66 0 1.32 0 2 0 C2.02686553 1.97909398 2.04633375 3.95828971 2.0625 5.9375 C2.07410156 7.03964844 2.08570313 8.14179688 2.09765625 9.27734375 C2 12 2 12 1 13 C0.63239269 15.32817964 0.29758419 17.6618385 0 20 C-0.66 20 -1.32 20 -2 20 C-1.855625 19.14277344 -1.71125 18.28554687 -1.5625 17.40234375 C-0.61141112 11.54390042 0.2761941 5.93817322 0 0 Z " fill="#F5EBD7" transform="translate(835,159)"/>
<path d="M0 0 C-1.15173355 2.46800047 -2.04783565 4.04783565 -4 6 C-3.34 6.66 -2.68 7.32 -2 8 C-4.31 8.33 -6.62 8.66 -9 9 C-4 0 -4 0 0 0 Z " fill="#F3E8CD" transform="translate(792,234)"/>
<path d="M0 0 C1.68496378 0.61896629 3.36403971 1.26117922 5 2 C4.67 2.66 4.34 3.32 4 4 C2.06077578 3.54901762 0.12366406 3.08894441 -1.8125 2.625 C-2.89144531 2.36976563 -3.97039063 2.11453125 -5.08203125 1.8515625 C-8 1 -8 1 -11 -1 C-7.49195332 -2.75402334 -3.65500408 -0.98937179 0 0 Z " fill="#B38E56" transform="translate(628,203)"/>
<path d="M0 0 C2.31 1.65 4.62 3.3 7 5 C6.01 5.495 6.01 5.495 5 6 C4.01 5.67 3.02 5.34 2 5 C2 7.64 2 10.28 2 13 C1.67 13 1.34 13 1 13 C-0.10228696 8.59085217 -0.07654536 4.51617599 0 0 Z " fill="#A7824D" transform="translate(573,162)"/>
<path d="M0 0 C-0.33 0.99 -0.66 1.98 -1 3 C-4.3 2.67 -7.6 2.34 -11 2 C-11 1.34 -11 0.68 -11 0 C-7.01803543 -1.05404945 -4.01804691 -0.84098656 0 0 Z " fill="#AC8C5A" transform="translate(818,258)"/>
<path d="M0 0 C0.66 0.33 1.32 0.66 2 1 C0.88200014 2.33920838 -0.24461897 3.67122556 -1.375 5 C-2.00148438 5.7425 -2.62796875 6.485 -3.2734375 7.25 C-4.12808594 8.11625 -4.12808594 8.11625 -5 9 C-5.66 9 -6.32 9 -7 9 C-7 9.66 -7 10.32 -7 11 C-7.66 11 -8.32 11 -9 11 C-7.59155282 7.78475695 -5.89655214 5.67816132 -3.375 3.25 C-2.74335937 2.63640625 -2.11171875 2.0228125 -1.4609375 1.390625 C-0.73777344 0.70226562 -0.73777344 0.70226562 0 0 Z " fill="#FCF6E4" transform="translate(760,214)"/>
<path d="M0 0 C2 2 2 2 3 4.0625 C3.84589942 6.16865601 3.84589942 6.16865601 6 7 C5.34 8.98 4.68 10.96 4 13 C2 12 2 12 0.875 8.75 C0.14536518 5.62299365 -0.19234975 3.17377095 0 0 Z " fill="#F9EED5" transform="translate(722,192)"/>
<path d="M0 0 C0.99 0.33 1.98 0.66 3 1 C0.36 3.64 -2.28 6.28 -5 9 C-5.99 8.67 -6.98 8.34 -8 8 C-5.36 5.36 -2.72 2.72 0 0 Z " fill="#2F3E55" transform="translate(683,372)"/>
<path d="M0 0 C2.97 0.99 5.94 1.98 9 3 C7.68 3.33 6.36 3.66 5 4 C5.33 4.99 5.66 5.98 6 7 C5.01 7.495 5.01 7.495 4 8 C0 2.25 0 2.25 0 0 Z " fill="#A98652" transform="translate(531,231)"/>
<path d="M0 0 C2.64 0.33 5.28 0.66 8 1 C5.6870518 3.3129482 4.52095125 3.49580975 1.375 4.125 C0.55773437 4.29257812 -0.25953125 4.46015625 -1.1015625 4.6328125 C-2.04128906 4.81457031 -2.04128906 4.81457031 -3 5 C-3 4.34 -3 3.68 -3 3 C-1.68 2.67 -0.36 2.34 1 2 C0.67 1.34 0.34 0.68 0 0 Z " fill="#A98959" transform="translate(589,257)"/>
<path d="M0 0 C-1.44253657 3.36591866 -3.33264727 5.51047079 -6 8 C-6.99 7.67 -7.98 7.34 -9 7 C-7.88121617 5.82737096 -6.75476949 4.66204862 -5.625 3.5 C-4.68527344 2.52546875 -4.68527344 2.52546875 -3.7265625 1.53125 C-2 0 -2 0 0 0 Z " fill="#F5EDD8" transform="translate(665,242)"/>
<path d="M0 0 C3.45925163 1.2491742 6.14693203 2.67527795 9 5 C8.38125 5.144375 7.7625 5.28875 7.125 5.4375 C4.96741678 5.93152225 4.96741678 5.93152225 3 7 C0 2.25 0 2.25 0 0 Z " fill="#F8ECCE" transform="translate(594,193)"/>
<path d="M0 0 C4.42857143 5.14285714 4.42857143 5.14285714 5 9 C4.34 9 3.68 9 3 9 C2.67 9.99 2.34 10.98 2 12 C0.86235649 7.73383684 0 4.43513689 0 0 Z " fill="#F5E7C6" transform="translate(660,179)"/>
<path d="M0 0 C3.62685461 -0.20149192 5.91228852 0.04444939 9 2 C10.75 3.625 10.75 3.625 12 5 C11.67 5.66 11.34 6.32 11 7 C7.37 5.02 3.74 3.04 0 1 C0 0.67 0 0.34 0 0 Z " fill="#F4E9D3" transform="translate(635,141)"/>
<path d="M0 0 C0.33 0 0.66 0 1 0 C1.33 1.65 1.66 3.3 2 5 C3.65 5 5.3 5 7 5 C6.01 6.32 5.02 7.64 4 9 C3.01 8.67 2.02 8.34 1 8 C-0.25 5.0625 -0.25 5.0625 -1 2 C-0.67 1.34 -0.34 0.68 0 0 Z " fill="#A48450" transform="translate(755,329)"/>
<path d="M0 0 C-2.58926331 2.58926331 -4.02705279 2.37398043 -7.625 2.625 C-8.62789062 2.69976562 -9.63078125 2.77453125 -10.6640625 2.8515625 C-11.82035156 2.92503906 -11.82035156 2.92503906 -13 3 C-8.8341563 0.22277086 -4.9360889 -1.89849573 0 0 Z " fill="#F4E9D1" transform="translate(832,301)"/>
<path d="M0 0 C0 3 0 3 -1.53125 4.60546875 C-2.1809375 5.12753906 -2.830625 5.64960938 -3.5 6.1875 C-4.1496875 6.71730469 -4.799375 7.24710938 -5.46875 7.79296875 C-5.9740625 8.19128906 -6.479375 8.58960938 -7 9 C-7.66 8.67 -8.32 8.34 -9 8 C-6.03 5.36 -3.06 2.72 0 0 Z " fill="#AE8850" transform="translate(785,223)"/>
<path d="M0 0 C0.66 0 1.32 0 2 0 C2.33 1.65 2.66 3.3 3 5 C2.01 4.67 1.02 4.34 0 4 C-0.33 5.65 -0.66 7.3 -1 9 C-1.66 9 -2.32 9 -3 9 C-2.01 6.03 -1.02 3.06 0 0 Z " fill="#AD8A55" transform="translate(765,139)"/>
<path d="M0 0 C0.33 0 0.66 0 1 0 C1 2.31 1 4.62 1 7 C-0.65 7.66 -2.3 8.32 -4 9 C-2.94124926 5.59687262 -1.99097846 2.98646769 0 0 Z " fill="#C8D1D9" transform="translate(697,303)"/>
<path d="M0 0 C0.66 0 1.32 0 2 0 C1.34 3.3 0.68 6.6 0 10 C-0.99 10 -1.98 10 -3 10 C-2.01 6.7 -1.02 3.4 0 0 Z " fill="#AE894F" transform="translate(681,173)"/>
<path d="M0 0 C0 0.66 0 1.32 0 2 C-1.28913487 2.67154933 -2.58140204 3.33708859 -3.875 4 C-4.59429688 4.37125 -5.31359375 4.7425 -6.0546875 5.125 C-8 6 -8 6 -10 6 C-10 5.34 -10 4.68 -10 4 C-8.71086513 3.32845067 -7.41859796 2.66291141 -6.125 2 C-5.40570312 1.62875 -4.68640625 1.2575 -3.9453125 0.875 C-2 0 -2 0 0 0 Z " fill="#AB8347" transform="translate(801,297)"/>
<path d="M0 0 C0.33 0 0.66 0 1 0 C1.33 1.98 1.66 3.96 2 6 C2.66 6 3.32 6 4 6 C3.34 7.65 2.68 9.3 2 11 C1.34 11 0.68 11 0 11 C0 7.37 0 3.74 0 0 Z " fill="#F9F0D9" transform="translate(736,211)"/>
<path d="M0 0 C0.33 0 0.66 0 1 0 C1.33 3.3 1.66 6.6 2 10 C-1.04095366 6.95904634 -1.68440793 6.10269692 -2 2 C-1.34 1.34 -0.68 0.68 0 0 Z " fill="#A78858" transform="translate(665,179)"/>
<path d="M0 0 C1.45823212 -0.0270043 2.91660675 -0.04639787 4.375 -0.0625 C5.18710937 -0.07410156 5.99921875 -0.08570313 6.8359375 -0.09765625 C9 0 9 0 11 1 C11 1.66 11 2.32 11 3 C7.37 2.34 3.74 1.68 0 1 C0 0.67 0 0.34 0 0 Z " fill="#B08A52" transform="translate(567,297)"/>
<path d="M0 0 C3.34373475 0.55728913 6.03312999 1.35173889 9 3 C9 3.66 9 4.32 9 5 C5.22454612 3.90931332 2.52956528 3.0916909 0 0 Z " fill="#F9F1DB" transform="translate(807,267)"/>
<path d="M0 0 C2.97 0 5.94 0 9 0 C8.67 0.66 8.34 1.32 8 2 C5.67843403 2.40729228 3.3431213 2.74438677 1 3 C0.67 2.01 0.34 1.02 0 0 Z " fill="#F0D8AB" transform="translate(827,251)"/>
<path d="M0 0 C3.3 0 6.6 0 10 0 C9.01 0.33 8.02 0.66 7 1 C7 1.66 7 2.32 7 3 C4.69 2.34 2.38 1.68 0 1 C0 0.67 0 0.34 0 0 Z " fill="#EFD7A9" transform="translate(572,251)"/>
<path d="M0 0 C-1.28913487 0.67154933 -2.58140204 1.33708859 -3.875 2 C-4.59429688 2.37125 -5.31359375 2.7425 -6.0546875 3.125 C-8 4 -8 4 -10 4 C-10 3.34 -10 2.68 -10 2 C-3.375 -1.125 -3.375 -1.125 0 0 Z " fill="#F8EED5" transform="translate(767,197)"/>
<path d="M0 0 C0.66 0.33 1.32 0.66 2 1 C0.68 2.65 -0.64 4.3 -2 6 C-2 5.34 -2 4.68 -2 4 C-3.32 3.67 -4.64 3.34 -6 3 C-4.03533587 1.93224776 -2.03144641 0.93446535 0 0 Z " fill="#EFDCB6" transform="translate(812,193)"/>
<path d="M0 0 C-1.15173355 2.46800047 -2.04783565 4.04783565 -4 6 C-4.99 5.67 -5.98 5.34 -7 5 C-2.25 0 -2.25 0 0 0 Z " fill="#37475D" transform="translate(681,423)"/>
<path d="M0 0 C0.33 0.99 0.66 1.98 1 3 C0.67 3.66 0.34 4.32 0 5 C0.66 5.66 1.32 6.32 2 7 C0.35 7 -1.3 7 -3 7 C-3 3 -3 3 -1.5 1.25 C-1.005 0.8375 -0.51 0.425 0 0 Z " fill="#9C8460" transform="translate(846,290)"/>
<path d="M0 0 C0.99 0.33 1.98 0.66 3 1 C0.36 2.98 -2.28 4.96 -5 7 C-3.38262276 3.76524552 -2.52370777 2.29427979 0 0 Z " fill="#A97F42" transform="translate(829,166)"/>
<path d="M0 0 C0.66 0 1.32 0 2 0 C1.46930939 3.82097239 0.50298434 6.06171403 -2 9 C-2.20140476 5.37471432 -1.85776765 3.13498292 0 0 Z " fill="#F8F0DB" transform="translate(687,156)"/>
</svg>
