<svg version="1.1" id="Layer_1" xmlns="http://www.w3.org/2000/svg" xmlns:xlink="http://www.w3.org/1999/xlink" x="0px" y="0px"
	 width="100%" viewBox="0 0 1024 544" enable-background="new 0 0 1024 544" xml:space="preserve">
<path fill="#000000" opacity="1.000000" stroke="none" 
	d="
M465.475525,110.598602 
	C464.168518,108.433876 463.020966,106.600754 461.925201,104.737167 
	C461.782288,104.494118 461.905640,104.094528 461.905640,103.694710 
	C462.925934,102.396797 464.005188,103.436790 464.945435,103.844170 
	C479.187073,110.014549 485.355835,121.693916 487.041321,136.398911 
	C487.097168,136.886017 487.231934,137.638458 486.982758,137.841690 
	C485.342438,139.179840 483.851349,140.135162 484.916779,142.939758 
	C486.778229,147.839874 488.455231,152.742111 492.319427,157.738007 
	C493.638550,151.698334 491.527893,146.894730 492.218964,141.923004 
	C493.272583,134.343430 495.737152,127.341568 499.182922,120.684601 
	C505.851654,107.801193 511.155426,94.641701 509.872559,79.712257 
	C509.804871,78.924522 509.834595,78.028358 510.859802,77.427208 
	C513.132385,77.432251 514.006836,79.447685 515.121826,80.954971 
	C522.981750,91.580841 527.134705,103.525185 527.306458,116.748726 
	C527.403809,124.240097 527.106689,131.735916 527.116882,139.229553 
	C527.119568,141.164749 526.895630,143.284561 529.391602,145.740860 
	C536.416382,128.822418 553.306458,118.952309 557.794006,100.047295 
	C564.969360,110.274216 559.853333,129.542114 547.847900,141.329254 
	C546.077393,141.718948 547.193237,139.156113 545.721313,139.240524 
	C540.814697,144.359451 537.264404,152.786469 537.645630,158.400726 
	C538.641174,158.982407 539.231201,158.210205 539.679993,157.616226 
	C546.648926,148.392288 556.282593,143.462280 567.149048,140.535202 
	C582.161316,136.491379 596.177307,130.668503 606.822571,118.688179 
	C607.324829,118.122902 608.156799,117.850494 609.167908,117.241219 
	C610.794434,120.655495 609.351868,123.677635 608.772217,126.542770 
	C605.201416,144.192291 595.729065,158.007812 581.095032,168.397858 
	C579.204102,169.740417 577.512207,171.371292 575.783997,172.930557 
	C575.200073,173.457397 574.789185,174.175919 573.511902,175.820709 
	C587.512512,172.006348 600.544800,173.966537 613.590576,174.558350 
	C620.641785,174.878235 627.449463,172.995407 634.064148,170.573517 
	C635.599365,170.011429 637.147644,169.484970 640.097778,168.446533 
	C635.899048,177.491364 629.485718,182.699615 622.817322,187.626480 
	C611.981506,195.632446 600.451172,192.661926 588.244141,189.679077 
	C592.110168,185.609848 597.554504,187.749542 601.161865,184.982819 
	C591.415283,181.341949 574.297729,184.686295 567.880310,191.497559 
	C568.304504,193.111618 569.682678,192.745193 570.735107,192.719040 
	C581.398071,192.454239 591.306824,195.329758 600.140991,201.006287 
	C608.104919,206.123581 616.193665,207.304825 625.275330,205.218704 
	C630.798950,203.949890 636.556702,204.602249 642.213257,204.954727 
	C645.724182,205.173523 647.428467,206.630676 647.419373,210.589096 
	C647.304626,260.575836 647.297241,310.563019 647.418762,360.549713 
	C647.429199,364.830994 645.538391,365.535004 641.972778,365.372192 
	C620.570801,364.394745 599.388855,365.980133 578.546265,371.163208 
	C557.654663,376.358429 538.143616,384.558838 520.813049,397.574219 
	C516.059204,401.144379 510.937347,401.136017 505.963959,397.538025 
	C479.885345,378.671417 450.453033,369.327576 418.702087,366.116669 
	C407.041840,364.937500 395.414886,365.223785 383.771851,365.459106 
	C379.962128,365.536102 378.891571,364.220490 378.898407,360.588043 
	C378.991974,310.934448 379.060425,261.280365 378.885559,211.627274 
	C378.864960,205.777939 382.193573,205.141357 386.400543,204.861588 
	C399.519318,203.989136 412.291504,206.052826 424.874359,209.576721 
	C434.200287,212.188492 443.229523,215.566162 451.827484,220.065155 
	C453.250275,220.809647 454.627258,221.956680 457.140015,221.249390 
	C456.905273,216.037003 456.523773,210.656708 457.098541,205.045517 
	C451.235199,203.252518 445.738678,204.613831 440.828033,206.580444 
	C434.065338,209.288757 429.036774,206.266190 422.160278,203.151474 
	C434.451935,196.792084 446.187897,193.297012 459.248535,193.388824 
	C455.151581,185.706406 434.251526,181.509964 423.713043,184.540848 
	C427.300598,187.101746 431.842407,186.355865 435.454681,188.433075 
	C423.667297,199.711411 394.980957,188.257614 387.201324,169.200592 
	C389.294220,168.005859 391.065948,169.432144 392.732269,170.092896 
	C402.194214,173.844894 411.766388,175.344650 422.048767,174.074356 
	C431.424377,172.916061 440.983032,172.901596 450.872711,174.912506 
	C431.247253,160.956955 418.853485,142.923187 417.760071,117.806671 
	C432.731720,134.772446 454.143890,138.283966 474.435944,146.021759 
	C471.607758,134.027130 471.001984,121.933327 465.475525,110.598602 
M544.982971,371.357239 
	C572.330261,359.680664 600.890442,354.125610 630.599304,354.700256 
	C635.179382,354.788818 637.030823,353.785065 637.008240,348.705902 
	C636.820374,306.540924 636.910034,264.374725 636.902649,222.208893 
	C636.901428,215.137207 636.755371,215.028290 629.518677,215.396042 
	C628.853394,215.429840 628.187622,215.472092 627.524963,215.538635 
	C602.181763,218.082993 579.616760,227.734406 558.940002,242.271378 
	C556.810608,243.768463 555.319885,246.260757 552.380249,246.674789 
	C548.644043,243.849091 549.692322,240.950562 551.764648,237.592712 
	C561.698425,221.496597 561.815247,205.230972 552.144836,188.947021 
	C540.079346,168.630112 513.615051,161.080383 492.794861,171.993759 
	C471.279419,183.271576 461.792480,209.308212 471.457886,230.837463 
	C472.883118,234.012146 474.837128,236.951065 476.570953,239.985107 
	C477.876038,242.268890 477.075073,244.309372 475.498444,245.897263 
	C473.571930,247.837494 472.249359,245.711472 470.856506,244.724731 
	C468.274841,242.895813 465.790649,240.923645 463.158295,239.172867 
	C442.673584,225.548523 420.401794,217.009888 395.674072,215.289352 
	C390.920959,214.958664 389.311707,216.452393 389.328705,221.364929 
	C389.475830,263.863373 389.455627,306.362885 389.277130,348.861237 
	C389.257233,353.596130 390.838654,354.818756 395.348877,354.678650 
	C421.287170,353.872864 446.424072,358.384735 470.835632,366.962372 
	C477.504456,369.305603 483.909576,372.399323 491.496735,375.595612 
	C480.667664,364.368164 468.531372,357.344727 455.114838,352.381622 
	C439.476562,346.596649 423.203796,344.310852 406.618164,344.205078 
	C401.888824,344.174896 399.816742,342.918152 399.846100,337.658478 
	C400.048035,301.493652 399.946350,265.327209 399.966736,229.161270 
	C399.970398,222.647156 401.155731,221.939072 407.374237,223.729218 
	C410.828613,224.723633 410.354218,227.253891 410.355469,229.695969 
	C410.369751,257.362030 410.363098,285.028107 410.362061,312.694183 
	C410.361969,314.616364 410.362000,316.538513 410.362000,318.460693 
	C410.731659,318.546021 411.101318,318.631378 411.470978,318.716736 
	C425.414917,296.390900 439.358887,274.065063 453.518829,251.393387 
	C459.977875,256.655884 463.637451,263.504822 470.690796,268.011902 
	C484.874634,242.978699 498.780731,218.435730 513.372925,192.681931 
	C526.040771,214.991409 538.047852,236.137207 550.223328,257.579620 
	C555.477295,253.526703 560.201965,250.126785 564.634766,246.381485 
	C567.888550,243.632355 569.561462,244.598846 571.570007,247.887711 
	C584.249146,268.648834 597.080322,289.317139 609.885986,310.000854 
	C611.487915,312.588348 613.234497,315.086273 614.914124,317.625732 
	C616.018677,314.541260 616.017944,311.909912 616.018799,309.278595 
	C616.027100,283.779144 616.032288,258.279694 616.051208,232.780243 
	C616.052612,230.948639 615.998169,229.096130 616.240540,227.289673 
	C616.844666,222.786407 620.775696,223.375580 623.646545,223.070984 
	C627.082581,222.706406 626.347290,225.789368 626.350037,227.752121 
	C626.401428,264.751282 626.352478,301.750671 626.451172,338.749664 
	C626.461121,342.502869 625.414978,344.269043 621.396667,344.178589 
	C615.406067,344.043671 609.435730,344.551544 603.457153,345.164093 
	C580.877563,347.477478 560.401428,355.066284 542.352966,368.933472 
	C540.642517,370.247711 538.747925,371.527802 537.748596,373.993317 
	C540.555908,373.827423 542.355652,372.537537 544.982971,371.357239 
M591.634521,300.816437 
	C583.117371,287.153595 574.600220,273.490723 565.684326,259.188202 
	C560.665039,263.135468 555.955566,266.504639 551.654724,270.332916 
	C548.518005,273.124939 546.760864,272.687225 544.786865,269.165619 
	C538.600952,258.130127 532.262817,247.179337 525.910095,236.238464 
	C524.125488,233.164963 522.756714,229.772812 519.457947,226.667664 
	C519.012329,229.853149 519.268677,232.208740 519.807068,234.621841 
	C521.542725,242.401123 523.399841,250.162567 524.811768,258.002625 
	C526.895996,269.576019 527.766296,281.118896 522.324158,292.215363 
	C518.567017,299.876160 512.483093,305.570984 506.563385,311.414886 
	C500.049927,317.844910 493.273743,324.000702 488.760925,332.183319 
	C483.467072,341.781982 483.627472,351.952362 491.014282,359.998444 
	C498.879944,368.566040 507.137360,376.731293 513.334473,387.559753 
	C535.724121,350.309570 570.955261,337.416626 611.920410,333.351227 
	C604.971436,322.211456 598.492004,311.824280 591.634521,300.816437 
M501.884888,234.321823 
	C493.014038,250.144730 484.135101,265.963104 475.277435,281.793396 
	C472.718170,286.367279 472.390869,286.329987 468.570618,282.691681 
	C464.141785,278.473816 459.498322,274.481354 454.466522,269.958130 
	C441.650543,290.481506 428.519592,311.509247 414.847504,333.403503 
	C436.133728,335.512878 455.904175,339.295166 474.448547,349.624664 
	C473.401947,338.544739 472.837372,328.422943 474.757690,318.413849 
	C478.641144,298.172363 485.865875,279.707092 503.076904,266.706696 
	C505.455017,264.910400 507.585266,262.758057 509.684448,260.626862 
	C512.927612,257.334229 514.249023,253.685852 512.854248,248.849487 
	C510.971100,242.319412 509.018188,235.751282 508.468597,228.899521 
	C508.404755,228.103592 508.058533,227.277100 506.730957,226.961487 
	C504.498749,228.558395 503.789185,231.427933 501.884888,234.321823 
M467.943695,155.492203 
	C458.222473,150.163254 447.355438,148.343033 436.915741,144.959000 
	C444.134827,159.360779 459.824799,165.033951 467.941040,177.716034 
	C470.810852,176.921371 471.940796,175.084457 472.907135,173.476212 
	C474.644562,170.584793 480.330261,170.039612 478.568451,165.332870 
	C477.292511,161.924164 474.034943,159.683792 471.080231,157.497528 
	C470.280670,156.905884 469.411652,156.408127 467.943695,155.492203 
M575.189514,148.919586 
	C565.606445,150.983887 556.676514,154.257629 549.912415,161.888748 
	C547.260193,164.880951 546.742310,167.069153 550.265686,170.082123 
	C557.959412,176.661240 557.579895,176.635117 564.760620,169.606384 
	C570.927612,163.569824 577.692078,158.146576 584.125183,152.377243 
	C586.630310,150.130630 588.815125,147.587326 590.520447,143.837036 
	C585.078491,145.630753 580.512756,147.135651 575.189514,148.919586 
M511.486847,273.086823 
	C497.346924,283.510010 489.551697,297.591278 486.592255,315.349701 
	C494.305542,311.013062 510.980011,292.607178 513.784546,285.769836 
	C515.253601,282.188263 516.115662,278.493256 515.812012,274.599609 
	C515.606873,271.969025 514.588501,270.764435 511.486847,273.086823 
M508.034485,126.472603 
	C504.348785,134.082230 501.857819,141.949722 503.388763,150.534271 
	C503.810913,152.901642 504.074219,156.294983 507.133026,156.250000 
	C510.968750,156.193588 515.010315,156.591095 519.584595,154.888641 
	C513.049561,140.656982 518.526611,125.684296 515.427429,111.075348 
	C513.064758,115.978340 510.702148,120.881332 508.034485,126.472603 
M575.459351,219.864456 
	C582.011414,216.944550 588.563538,214.024643 595.870300,210.768387 
	C588.673584,206.478592 581.905090,203.989319 574.502197,203.368851 
	C572.495056,203.200623 570.169800,203.168488 570.093994,206.047943 
	C569.960266,211.127350 570.056519,216.212814 570.056519,221.248367 
	C572.016113,222.160568 573.343384,220.884644 575.459351,219.864456 
z"/>
</svg>