<?xml version="1.0" encoding="UTF-8"?>
<svg version="1.1" xmlns="http://www.w3.org/2000/svg" viewBox="0 0 1407 768" width="64" height="64">
<path d="M0 0 C464.31 0 928.62 0 1407 0 C1407 253.44 1407 506.88 1407 768 C942.69 768 478.38 768 0 768 C0 514.56 0 261.12 0 0 Z " fill="#FEFEFE" transform="translate(0,0)"/>
<path d="M0 0 C0.66 0 1.32 0 2 0 C3.71927949 2.13262543 5.31020721 4.25781141 6.875 6.5 C7.3282666 7.14493408 7.7815332 7.78986816 8.24853516 8.4543457 C17.23614107 21.41705065 22.4576656 35.94584447 22.08984375 51.79296875 C22.06941152 53.65950249 22.04923744 55.52603907 22.02929688 57.39257812 C21.98604555 60.28406346 21.93772771 63.17534907 21.88354492 66.06665039 C21.68523561 77.49923123 21.84142202 87.91373319 25 99 C25.50789062 97.94941406 26.01578125 96.89882812 26.5390625 95.81640625 C31.92523945 84.7809912 37.48518279 75.48540302 45.8359375 66.39453125 C54.36951711 56.95214082 60.73339556 45.97829321 65 34 C65.66 34 66.32 34 67 34 C70.25644276 43.76932827 69.12578329 57.95653757 65.33203125 67.3671875 C61.39821198 75.14253703 56.35748177 82.1510581 51 89 C49.59092717 86.18185434 50.49127309 84.82722796 51.4375 81.875 C51.72496094 80.96492188 52.01242187 80.05484375 52.30859375 79.1171875 C52.53675781 78.41851562 52.76492188 77.71984375 53 77 C43.22163749 89.44518865 37.09090608 101.10394001 36 117 C36.66 117 37.32 117 38 117 C38.185625 116.34 38.37125 115.68 38.5625 115 C40.64769843 110.64828154 43.67549136 107.46160178 47 104 C47.49113281 103.48308594 47.98226562 102.96617187 48.48828125 102.43359375 C57.92288507 93.48656635 70.6405667 89.11438722 82.87597656 85.61523438 C102.95727119 79.79858352 118.8859885 71.7744651 133.5390625 56.43359375 C135 55 135 55 136 55 C134.04862453 79.13543342 124.76906927 101.17349723 106.3046875 117.36328125 C103.56872635 119.61986459 100.79519883 121.81734127 98 124 C95.9946968 125.5975324 93.99457752 127.20159615 92 128.8125 C91.113125 129.52019531 90.22625 130.22789062 89.3125 130.95703125 C87.18361486 132.8377862 85.59671285 134.66270652 84 137 C85.6396875 136.566875 85.6396875 136.566875 87.3125 136.125 C88.87406165 135.74611156 90.43663859 135.37139244 92 135 C92.75152344 134.80921875 93.50304687 134.6184375 94.27734375 134.421875 C100.59022572 133.02566098 106.74971765 132.81838893 113.1875 132.8125 C114.03086914 132.81169434 114.87423828 132.81088867 115.74316406 132.81005859 C119.54814057 132.84367146 123.26332527 132.9802638 127.03515625 133.49609375 C142.92266825 135.51529478 156.54795115 133.15373902 171.50390625 127.671875 C174 127 174 127 177 128 C174.69678747 131.02427907 172.35825619 134.01845717 170 137 C169.45988281 137.69222656 168.91976563 138.38445312 168.36328125 139.09765625 C161.53893283 147.40915081 152.97106343 153.12114675 143 157 C142.34 157.33 141.68 157.66 141 158 C129.33433789 158.71450463 118.40174082 157.39736227 107 155 C107 154.34 107 153.68 107 153 C116.24 151.02 125.48 149.04 135 147 C129.96717399 146.8841549 124.93911149 146.7849588 119.90600586 146.7253418 C118.20011586 146.70045119 116.4943296 146.66652533 114.78881836 146.62280273 C99.69823672 146.24609218 89.06411703 149.06700904 76 157 C76 157.99 76 158.98 76 160 C76.99257813 159.96519531 77.98515625 159.93039062 79.0078125 159.89453125 C95.66004796 159.49009034 109.46704428 163.33787209 124.04223633 171.31542969 C133.61900463 176.49078381 140.12058545 179.77601581 151 177 C152.39184676 176.78489641 153.78804041 176.59567647 155.1875 176.4375 C155.88230469 176.35628906 156.57710937 176.27507812 157.29296875 176.19140625 C161.19548009 175.9154711 165.08872862 175.88814512 169 175.875 C169.74789795 175.87040771 170.4957959 175.86581543 171.26635742 175.86108398 C176.64024289 175.87576834 181.59497702 176.39944189 187 177 C187 249.27 187 321.54 187 396 C175.45 396 163.9 396 152 396 C138.0006167 396.34566379 124.68035151 398.01303854 110.91552734 400.47802734 C109.11796112 400.7998492 107.31903064 401.11427638 105.51806641 401.41650391 C73.80982484 406.76120001 38.41195772 419.77075293 13.6640625 440.72265625 C10.04917744 443.49746238 5.7246555 443.7665487 1.3125 443.71484375 C-3.67419118 442.63870638 -7.17378099 439.79745253 -11.19580078 436.83154297 C-27.49145474 424.91036013 -46.0028772 416.59856576 -65 410 C-66.23532471 409.5656665 -66.23532471 409.5656665 -67.49560547 409.12255859 C-81.2257877 404.38983804 -95.30507801 401.79586383 -109.62646484 399.53613281 C-111.7202513 399.20338169 -113.81221486 398.85863825 -115.90087891 398.49511719 C-137.36405764 394.76272643 -157.87810656 396 -180 396 C-180 324.06 -180 252.12 -180 178 C-174.22616786 176.07538929 -170.40798496 175.65011465 -164.5 175.6875 C-163.12980713 175.69378418 -163.12980713 175.69378418 -161.73193359 175.70019531 C-146.15640284 175.94974362 -130.8695401 178.38695504 -116 183 C-115.34741211 183.18868652 -114.69482422 183.37737305 -114.02246094 183.57177734 C-99.60452889 187.7414351 -86.38825157 194.29564302 -73 201 C-72.34 201.33 -71.68 201.66 -71 202 C-71.495 200.4840625 -71.495 200.4840625 -72 198.9375 C-73.99115389 191.05761439 -73.88627444 181.89217225 -72 174 C-75.14754745 174.2528023 -78.29243394 174.5306204 -81.4375 174.8125 C-82.31599609 174.88275391 -83.19449219 174.95300781 -84.09960938 175.02539062 C-89.40355794 175.51468477 -94.04308885 176.46811291 -99.01806641 178.39160156 C-105.8299133 180.48264892 -112.87642657 176.69788584 -119 174 C-119 173.34 -119 172.68 -119 172 C-92.15372525 160.56807847 -92.15372525 160.56807847 -76.9375 160.875 C-76.07189453 160.88402344 -75.20628906 160.89304687 -74.31445312 160.90234375 C-72.20951221 160.92560277 -70.10471658 160.96145992 -68 161 C-68.30683249 159.05339416 -68.30683249 159.05339416 -69 157 C-86.31849218 145.1244625 -106.89262094 144.48657762 -127 147 C-119.08 148.98 -111.16 150.96 -103 153 C-107.99270203 157.99270203 -117.86751411 158.21899447 -124.625 158.4375 C-140.6494398 157.97470029 -151.45358997 148.04295927 -162.1171875 137.18359375 C-169 129.86245714 -169 129.86245714 -169 126 C-167.865625 126.391875 -166.73125 126.78375 -165.5625 127.1875 C-164.73878906 127.455625 -163.91507813 127.72375 -163.06640625 128 C-161.43346073 128.53252746 -159.80159311 129.06895557 -158.17919922 129.6328125 C-145.96094222 133.86045698 -135.05271786 135.19964661 -122.16796875 133.4921875 C-106.36929869 131.40263012 -91.03286397 132.85482334 -76 138 C-78.12311963 136.16444989 -80.24811556 134.331181 -82.375 132.5 C-83.01405273 131.94900635 -83.65310547 131.3980127 -84.31152344 130.83032227 C-87.88678237 127.76229086 -91.50736245 124.80127538 -95.25 121.9375 C-112.64795316 108.04765871 -123.54813217 86.89133275 -127 65 C-127.18551488 62.27086997 -127.16094154 59.73600613 -127 57 C-122.93549433 59.95109055 -119.03438109 62.92947885 -115.375 66.375 C-104.27212122 76.17929647 -89.89797283 81.42808173 -76.03125 85.97265625 C-74.44739502 86.49182617 -74.44739502 86.49182617 -72.83154297 87.02148438 C-70.74543499 87.69874678 -68.65603162 88.36596897 -66.56298828 89.02148438 C-60.23811973 91.05295081 -54.69165175 93.58580055 -49 97 C-48.34 97.33 -47.68 97.66 -47 98 C-47.43570313 96.99324219 -47.87140625 95.98648438 -48.3203125 94.94921875 C-50.98173162 87.85262111 -51.94155028 80.23107771 -53.22412109 72.78588867 C-55.55978705 59.34685115 -59.45506942 47.48592524 -67 36 C-54.49766784 39.7635508 -44.69372905 47.99972016 -38.28515625 59.26171875 C-34.63964411 67.02920814 -33.5446672 75.51070441 -33 84 C-35.61527381 81.63379989 -37.26440562 79.057952 -39 76 C-37.17670562 84.51625698 -35.01362598 92.63477519 -31.5 100.625 C-31.21568115 101.2746875 -30.9313623 101.924375 -30.63842773 102.59375 C-28.78105503 106.67351597 -26.70669724 110.42329294 -24 114 C-23.01 114.33 -22.02 114.66 -21 115 C-21.2165625 114.43796875 -21.433125 113.8759375 -21.65625 113.296875 C-28.67683864 92.10509818 -21.89938099 73.49520949 -12.51147461 54.48217773 C-9.36669895 48.05657068 -6.54401924 41.67485888 -4.3125 34.875 C-4.08127441 34.17213867 -3.85004883 33.46927734 -3.61181641 32.74511719 C-1.23083471 25.09688937 -0.78618349 17.50219464 -0.4375 9.5625 C-0.37272461 8.17901367 -0.37272461 8.17901367 -0.30664062 6.76757812 C-0.20145069 4.51183837 -0.09930893 2.25600501 0 0 Z " fill="#1E3451" transform="translate(700,105)"/>
<path d="M0 0 C14.47223666 10.79674798 25.25214632 24.69126068 29.07421875 42.73046875 C31.35246565 61.02548176 27.66879857 76.23989097 17.65625 91.60546875 C16.09195837 93.9273555 16.09195837 93.9273555 17.2734375 97.1484375 C17.86125 98.47875 17.86125 98.47875 18.4609375 99.8359375 C21.73592099 98.41624022 24.40916923 96.42392466 27.22949219 94.25732422 C45.54094591 80.23716594 67.30897137 69.25975276 89.4609375 62.8359375 C90.42644531 62.55234375 91.39195312 62.26875 92.38671875 61.9765625 C98.42339775 60.34006308 104.55008803 59.20171201 110.7109375 58.1484375 C111.43635742 58.01679199 112.16177734 57.88514648 112.90917969 57.74951172 C120.94472961 56.45665473 128.0072101 56.8359375 136.4609375 56.8359375 C136.4609375 120.5259375 136.4609375 184.2159375 136.4609375 249.8359375 C126.5609375 250.1659375 116.6609375 250.4959375 106.4609375 250.8359375 C100.68129287 251.30339113 95.01159449 251.7994098 89.2734375 252.5234375 C88.57690063 252.60930115 87.88036377 252.69516479 87.16271973 252.78363037 C57.8149515 256.43706077 28.09752789 263.7599499 1.61328125 277.2421875 C-1.0701273 278.59885502 -3.72916048 279.77359269 -6.5390625 280.8359375 C-2.43279005 272.86493804 4.5996237 267.68345129 11.9609375 262.8984375 C12.75209961 262.38120117 13.54326172 261.86396484 14.35839844 261.33105469 C46.97295184 240.27376769 82.05307151 233.8359375 120.4609375 233.8359375 C120.4609375 179.3859375 120.4609375 124.9359375 120.4609375 68.8359375 C116.1709375 69.4959375 111.8809375 70.1559375 107.4609375 70.8359375 C107.4609375 114.3959375 107.4609375 157.9559375 107.4609375 202.8359375 C101.83962231 197.21462231 101.83962231 197.21462231 99.98828125 194.078125 C99.36070923 193.03084229 99.36070923 193.03084229 98.72045898 191.96240234 C98.06605835 190.84792725 98.06605835 190.84792725 97.3984375 189.7109375 C96.4310279 188.09555068 95.46223083 186.48099413 94.4921875 184.8671875 C93.99460937 184.03703125 93.49703125 183.206875 92.984375 182.3515625 C90.51202242 178.26901106 87.9566758 174.24002896 85.3984375 170.2109375 C84.38402216 168.60943354 83.36969822 167.00787168 82.35546875 165.40625 C81.86643066 164.63442383 81.37739258 163.86259766 80.87353516 163.06738281 C72.88118044 150.44205926 65.09062661 137.69782874 57.33691406 124.92480469 C54.0908735 119.5800747 50.83800018 114.23950457 47.5859375 108.8984375 C46.40101204 106.95184095 45.21611337 105.00522809 44.03125 103.05859375 C43.53383301 102.24140869 43.03641602 101.42422363 42.52392578 100.58227539 C42.17313965 100.00598389 41.82235352 99.42969238 41.4609375 98.8359375 C36.3180037 102.18129958 31.3556144 105.57437108 26.6484375 109.5234375 C24.92281562 110.96519085 23.19397731 112.40310931 21.4609375 113.8359375 C20.75582031 114.44050781 20.05070313 115.04507813 19.32421875 115.66796875 C18.70933594 116.05339844 18.09445312 116.43882812 17.4609375 116.8359375 C13.66406572 115.57031357 13.40674754 114.46099111 11.52734375 111.0078125 C10.96732666 109.99154785 10.40730957 108.9752832 9.83032227 107.92822266 C9.23405029 106.82526855 8.63777832 105.72231445 8.0234375 104.5859375 C6.75347061 102.27556519 5.48262438 99.96567603 4.2109375 97.65625 C3.57671875 96.49899414 2.9425 95.34173828 2.2890625 94.14941406 C-0.24567828 89.5551964 -2.85592357 85.00651413 -5.4765625 80.4609375 C-10.81486684 71.16823308 -16.02291091 61.80499813 -21.20092773 52.42236328 C-24.78096271 45.94782159 -28.45122453 39.54425787 -32.26049805 33.20141602 C-33.5390625 30.8359375 -33.5390625 30.8359375 -33.5390625 28.8359375 C-34.1990625 28.8359375 -34.8590625 28.8359375 -35.5390625 28.8359375 C-35.81580811 29.5592627 -36.09255371 30.28258789 -36.37768555 31.02783203 C-37.48855108 33.71380541 -38.73676679 36.21142688 -40.12109375 38.765625 C-40.89054321 40.18766235 -40.89054321 40.18766235 -41.67553711 41.63842773 C-42.22862549 42.65235596 -42.78171387 43.66628418 -43.3515625 44.7109375 C-43.9297876 45.77449463 -44.5080127 46.83805176 -45.10375977 47.93383789 C-50.0524371 57.00607787 -55.11973665 66.0082961 -60.2265625 74.9921875 C-63.08499901 80.02330734 -65.90785966 85.0735702 -68.72363281 90.12866211 C-74.15099048 99.86540224 -79.63975397 109.56470708 -85.2265625 119.2109375 C-86.1091272 120.74512329 -86.1091272 120.74512329 -87.00952148 122.31030273 C-87.55938721 123.25462158 -88.10925293 124.19894043 -88.67578125 125.171875 C-89.15748779 126.00251465 -89.63919434 126.8331543 -90.13549805 127.68896484 C-91.4439647 129.69047045 -92.78057908 131.22727128 -94.5390625 132.8359375 C-96.72874661 130.50464562 -98.91579895 128.17090556 -101.1015625 125.8359375 C-101.74254883 125.15128418 -102.38353516 124.46663086 -103.04394531 123.76123047 C-106.8928931 119.63735784 -110.67604594 115.47695206 -114.3046875 111.15625 C-115.52413696 109.69842367 -115.52413696 109.69842367 -117.5390625 108.8359375 C-117.76207031 109.47917969 -117.98507812 110.12242187 -118.21484375 110.78515625 C-120.02969917 114.96628334 -122.36274858 118.75707722 -124.7265625 122.6484375 C-125.5167981 123.95699707 -125.5167981 123.95699707 -126.32299805 125.29199219 C-132.3136277 135.17491768 -138.45566459 144.96332689 -144.60253906 154.74951172 C-147.18372815 158.86340386 -149.75490079 162.9835117 -152.32592773 167.10375977 C-154.79852882 171.06468567 -157.27579563 175.02268237 -159.75341797 178.98046875 C-161.5198788 181.80526037 -163.28149518 184.63303413 -165.04296875 187.4609375 C-166.1247631 189.19025238 -167.2067822 190.9194267 -168.2890625 192.6484375 C-169.02322388 193.83143433 -169.02322388 193.83143433 -169.7722168 195.03833008 C-170.22636963 195.76173584 -170.68052246 196.4851416 -171.1484375 197.23046875 C-171.53999023 197.85800049 -171.93154297 198.48553223 -172.33496094 199.13208008 C-173.5390625 200.8359375 -173.5390625 200.8359375 -176.5390625 203.8359375 C-176.5390625 159.9459375 -176.5390625 116.0559375 -176.5390625 70.8359375 C-180.0040625 70.3409375 -180.0040625 70.3409375 -183.5390625 69.8359375 C-185.5190625 69.5059375 -187.4990625 69.1759375 -189.5390625 68.8359375 C-189.5390625 123.2859375 -189.5390625 177.7359375 -189.5390625 233.8359375 C-184.9190625 233.8359375 -180.2990625 233.8359375 -175.5390625 233.8359375 C-173.18850344 233.96204451 -170.83876654 234.12152975 -168.49609375 234.3515625 C-167.33005615 234.4659668 -166.16401855 234.58037109 -164.96264648 234.69824219 C-163.77098877 234.82618164 -162.57933105 234.95412109 -161.3515625 235.0859375 C-160.08707275 235.22161133 -158.82258301 235.35728516 -157.51977539 235.49707031 C-123.31243607 239.35866204 -85.50012282 251.51355846 -62.5390625 278.8359375 C-62.5390625 279.4959375 -62.5390625 280.1559375 -62.5390625 280.8359375 C-65.64413383 279.65275508 -68.65823792 278.32981589 -71.6640625 276.91796875 C-83.69385883 271.29402029 -95.82889376 266.67817829 -108.5390625 262.8359375 C-109.60012207 262.51334961 -110.66118164 262.19076172 -111.75439453 261.85839844 C-120.30790523 259.32999463 -128.8986749 257.34776561 -137.6640625 255.7109375 C-138.34926971 255.58209167 -139.03447693 255.45324585 -139.740448 255.32049561 C-161.71442205 251.24189813 -183.12628437 250.8359375 -205.5390625 250.8359375 C-205.5390625 186.8159375 -205.5390625 122.7959375 -205.5390625 56.8359375 C-196.02491987 56.8359375 -187.76928174 56.87862264 -178.6015625 58.5234375 C-177.57160156 58.70277832 -176.54164063 58.88211914 -175.48046875 59.06689453 C-166.87734797 60.63561984 -158.75772983 62.88208243 -150.5390625 65.8359375 C-149.29898438 66.25359375 -148.05890625 66.67125 -146.78125 67.1015625 C-126.6211747 74.06683775 -106.99425281 84.24695015 -91.11499023 98.6081543 C-89.43917288 100.0545608 -89.43917288 100.0545608 -86.5390625 100.8359375 C-85.38973117 96.7749668 -84.74868381 94.28416188 -86.8203125 90.48828125 C-87.408125 89.65425781 -87.9959375 88.82023437 -88.6015625 87.9609375 C-97.78597029 74.57162011 -100.99080503 58.61503894 -98.15087891 42.65429688 C-94.2785178 25.12548988 -83.41617205 9.53720959 -68.3515625 -0.1640625 C-47.88194134 -13.16230088 -20.43132901 -13.37199938 0 0 Z " fill="#FCFCFC" transform="translate(738.5390625,237.1640625)"/>
<path d="M0 0 C0.66 0 1.32 0 2 0 C3.71927949 2.13262543 5.31020721 4.25781141 6.875 6.5 C7.3282666 7.14493408 7.7815332 7.78986816 8.24853516 8.4543457 C17.23614107 21.41705065 22.4576656 35.94584447 22.08984375 51.79296875 C22.06941152 53.65950249 22.04923744 55.52603907 22.02929688 57.39257812 C21.98604555 60.28406346 21.93772771 63.17534907 21.88354492 66.06665039 C21.68523561 77.49923123 21.84142202 87.91373319 25 99 C25.50789062 97.94941406 26.01578125 96.89882812 26.5390625 95.81640625 C31.92523945 84.7809912 37.48518279 75.48540302 45.8359375 66.39453125 C54.36951711 56.95214082 60.73339556 45.97829321 65 34 C65.66 34 66.32 34 67 34 C70.25644276 43.76932827 69.12578329 57.95653757 65.33203125 67.3671875 C61.39821198 75.14253703 56.35748177 82.1510581 51 89 C49.59092717 86.18185434 50.49127309 84.82722796 51.4375 81.875 C51.72496094 80.96492188 52.01242187 80.05484375 52.30859375 79.1171875 C52.53675781 78.41851562 52.76492188 77.71984375 53 77 C43.22163749 89.44518865 37.09090608 101.10394001 36 117 C36.66 117 37.32 117 38 117 C38.185625 116.34 38.37125 115.68 38.5625 115 C40.64769843 110.64828154 43.67549136 107.46160178 47 104 C47.49113281 103.48308594 47.98226562 102.96617187 48.48828125 102.43359375 C57.92288507 93.48656635 70.6405667 89.11438722 82.87597656 85.61523438 C102.95727119 79.79858352 118.8859885 71.7744651 133.5390625 56.43359375 C135 55 135 55 136 55 C134.04862453 79.13543342 124.76906927 101.17349723 106.3046875 117.36328125 C103.56872635 119.61986459 100.79519883 121.81734127 98 124 C95.9946968 125.5975324 93.99457752 127.20159615 92 128.8125 C91.113125 129.52019531 90.22625 130.22789062 89.3125 130.95703125 C87.18361486 132.8377862 85.59671285 134.66270652 84 137 C85.6396875 136.566875 85.6396875 136.566875 87.3125 136.125 C88.87406165 135.74611156 90.43663859 135.37139244 92 135 C92.75152344 134.80921875 93.50304687 134.6184375 94.27734375 134.421875 C100.59022572 133.02566098 106.74971765 132.81838893 113.1875 132.8125 C114.03086914 132.81169434 114.87423828 132.81088867 115.74316406 132.81005859 C119.54814057 132.84367146 123.26332527 132.9802638 127.03515625 133.49609375 C142.92266825 135.51529478 156.54795115 133.15373902 171.50390625 127.671875 C174 127 174 127 177 128 C174.69678747 131.02427907 172.35825619 134.01845717 170 137 C169.45988281 137.69222656 168.91976563 138.38445312 168.36328125 139.09765625 C161.53893283 147.40915081 152.97106343 153.12114675 143 157 C142.34 157.33 141.68 157.66 141 158 C129.33433789 158.71450463 118.40174082 157.39736227 107 155 C107 154.34 107 153.68 107 153 C116.24 151.02 125.48 149.04 135 147 C129.96717399 146.8841549 124.93911149 146.7849588 119.90600586 146.7253418 C118.20011586 146.70045119 116.4943296 146.66652533 114.78881836 146.62280273 C99.69823672 146.24609218 89.06411703 149.06700904 76 157 C76 157.99 76 158.98 76 160 C76.99257813 159.96519531 77.98515625 159.93039062 79.0078125 159.89453125 C94.36538286 159.5215345 107.76788795 162.52849597 121.3671875 169.796875 C122.27339844 170.28027344 123.17960937 170.76367188 124.11328125 171.26171875 C125.95496221 172.25419463 127.78841771 173.26208724 129.61328125 174.28515625 C136.579321 177.95097291 142.17780354 178.64629295 150 178 C149.16215572 182.39156872 147.83398628 185.93333477 146 190 C146.66 190.66 147.32 191.32 148 192 C147.37996094 192.09796875 146.75992187 192.1959375 146.12109375 192.296875 C115.24458126 197.51037638 84.44936958 210.87756142 60.8828125 231.734375 C59.95082031 232.36085938 59.95082031 232.36085938 59 233 C56 232 56 232 54.5859375 229.35546875 C53.82151137 224.97785513 55.28411588 222.82949955 57.625 219.3125 C66.53347759 204.89480715 69.59706583 188.60123648 65.9375 171.875 C61.26973853 155.82139047 51.27852496 140.5846488 36.66796875 132.0546875 C26.09806163 126.46904571 16.59380078 123.48014153 4.5625 123.625 C3.12293945 123.60759766 3.12293945 123.60759766 1.65429688 123.58984375 C-14.20897396 123.65393777 -28.52519983 130.14800971 -40 141 C-52.74525371 154.22739324 -59.57509487 170.21343253 -59.56054688 188.52026367 C-59.13663995 201.05632509 -54.79220549 212.75804754 -47.22265625 222.73828125 C-46 225 -46 225 -46.24609375 227.60546875 C-46.81393297 229.40902025 -47.40206694 231.20620083 -48 233 C-51.6274984 232.40358697 -53.50092934 230.95111559 -56.25 228.5625 C-79.91476504 209.28136727 -109.23434167 197.55451363 -139 192 C-138.34 191.67 -137.68 191.34 -137 191 C-137.3609375 190.22914063 -137.721875 189.45828125 -138.09375 188.6640625 C-138.5578125 187.66117188 -139.021875 186.65828125 -139.5 185.625 C-139.9640625 184.62726563 -140.428125 183.62953125 -140.90625 182.6015625 C-142 180 -142 180 -142 178 C-132.96494552 178.37567794 -124.61729206 180.42906096 -116 183 C-115.33145996 183.19158691 -114.66291992 183.38317383 -113.97412109 183.58056641 C-99.57529119 187.74873873 -86.37102787 194.30426803 -73 201 C-72.34 201.33 -71.68 201.66 -71 202 C-71.495 200.4840625 -71.495 200.4840625 -72 198.9375 C-73.99115389 191.05761439 -73.88627444 181.89217225 -72 174 C-75.14754745 174.2528023 -78.29243394 174.5306204 -81.4375 174.8125 C-82.31599609 174.88275391 -83.19449219 174.95300781 -84.09960938 175.02539062 C-89.40355794 175.51468477 -94.04308885 176.46811291 -99.01806641 178.39160156 C-105.8299133 180.48264892 -112.87642657 176.69788584 -119 174 C-119 173.34 -119 172.68 -119 172 C-92.15372525 160.56807847 -92.15372525 160.56807847 -76.9375 160.875 C-76.07189453 160.88402344 -75.20628906 160.89304687 -74.31445312 160.90234375 C-72.20951221 160.92560277 -70.10471658 160.96145992 -68 161 C-68.30683249 159.05339416 -68.30683249 159.05339416 -69 157 C-86.31849218 145.1244625 -106.89262094 144.48657762 -127 147 C-119.08 148.98 -111.16 150.96 -103 153 C-107.99270203 157.99270203 -117.86751411 158.21899447 -124.625 158.4375 C-140.6494398 157.97470029 -151.45358997 148.04295927 -162.1171875 137.18359375 C-169 129.86245714 -169 129.86245714 -169 126 C-167.865625 126.391875 -166.73125 126.78375 -165.5625 127.1875 C-164.73878906 127.455625 -163.91507813 127.72375 -163.06640625 128 C-161.43346073 128.53252746 -159.80159311 129.06895557 -158.17919922 129.6328125 C-145.96094222 133.86045698 -135.05271786 135.19964661 -122.16796875 133.4921875 C-106.36929869 131.40263012 -91.03286397 132.85482334 -76 138 C-78.12311963 136.16444989 -80.24811556 134.331181 -82.375 132.5 C-83.01405273 131.94900635 -83.65310547 131.3980127 -84.31152344 130.83032227 C-87.88678237 127.76229086 -91.50736245 124.80127538 -95.25 121.9375 C-112.64795316 108.04765871 -123.54813217 86.89133275 -127 65 C-127.18551488 62.27086997 -127.16094154 59.73600613 -127 57 C-122.93549433 59.95109055 -119.03438109 62.92947885 -115.375 66.375 C-104.27212122 76.17929647 -89.89797283 81.42808173 -76.03125 85.97265625 C-74.44739502 86.49182617 -74.44739502 86.49182617 -72.83154297 87.02148438 C-70.74543499 87.69874678 -68.65603162 88.36596897 -66.56298828 89.02148438 C-60.23811973 91.05295081 -54.69165175 93.58580055 -49 97 C-48.34 97.33 -47.68 97.66 -47 98 C-47.43570313 96.99324219 -47.87140625 95.98648438 -48.3203125 94.94921875 C-50.98173162 87.85262111 -51.94155028 80.23107771 -53.22412109 72.78588867 C-55.55978705 59.34685115 -59.45506942 47.48592524 -67 36 C-54.49766784 39.7635508 -44.69372905 47.99972016 -38.28515625 59.26171875 C-34.63964411 67.02920814 -33.5446672 75.51070441 -33 84 C-35.61527381 81.63379989 -37.26440562 79.057952 -39 76 C-37.17670562 84.51625698 -35.01362598 92.63477519 -31.5 100.625 C-31.21568115 101.2746875 -30.9313623 101.924375 -30.63842773 102.59375 C-28.78105503 106.67351597 -26.70669724 110.42329294 -24 114 C-23.01 114.33 -22.02 114.66 -21 115 C-21.2165625 114.43796875 -21.433125 113.8759375 -21.65625 113.296875 C-28.67683864 92.10509818 -21.89938099 73.49520949 -12.51147461 54.48217773 C-9.36669895 48.05657068 -6.54401924 41.67485888 -4.3125 34.875 C-4.08127441 34.17213867 -3.85004883 33.46927734 -3.61181641 32.74511719 C-1.23083471 25.09688937 -0.78618349 17.50219464 -0.4375 9.5625 C-0.37272461 8.17901367 -0.37272461 8.17901367 -0.30664062 6.76757812 C-0.20145069 4.51183837 -0.09930893 2.25600501 0 0 Z " fill="#B3813A" transform="translate(700,105)"/>
</svg>
